<?xml version="1.0" encoding="UTF-8" standalone="no"?>
<!-- Created with Inkscape (http://www.inkscape.org/) -->

<svg
   xmlns:dc="http://purl.org/dc/elements/1.1/"
   xmlns:cc="http://creativecommons.org/ns#"
   xmlns:rdf="http://www.w3.org/1999/02/22-rdf-syntax-ns#"
   xmlns:svg="http://www.w3.org/2000/svg"
   xmlns="http://www.w3.org/2000/svg"
   xmlns:sodipodi="http://sodipodi.sourceforge.net/DTD/sodipodi-0.dtd"
   xmlns:inkscape="http://www.inkscape.org/namespaces/inkscape"
   width="210mm"
   height="210mm"
   viewBox="0 0 744.09449 744.09448"
   id="svg4808"
   version="1.1"
   inkscape:version="0.91 r13725"
   sodipodi:docname="Feet.svg"
   inkscape:export-filename="/home/charlotte/Programme/cordova/workshop/www/img/Feet.png"
   inkscape:export-xdpi="100"
   inkscape:export-ydpi="100">
  <defs
     id="defs4810" />
  <sodipodi:namedview
     id="base"
     pagecolor="#ffffff"
     bordercolor="#666666"
     borderopacity="1.0"
     inkscape:pageopacity="0.0"
     inkscape:pageshadow="2"
     inkscape:zoom="0.71"
     inkscape:cx="110.79477"
     inkscape:cy="521.60966"
     inkscape:document-units="px"
     inkscape:current-layer="layer1"
     showgrid="false"
     inkscape:window-width="1853"
     inkscape:window-height="1056"
     inkscape:window-x="67"
     inkscape:window-y="24"
     inkscape:window-maximized="1" />
  <metadata
     id="metadata4813">
    <rdf:RDF>
      <cc:Work
         rdf:about="">
        <dc:format>image/svg+xml</dc:format>
        <dc:type
           rdf:resource="http://purl.org/dc/dcmitype/StillImage" />
        <dc:title></dc:title>
      </cc:Work>
    </rdf:RDF>
  </metadata>
  <g
     inkscape:label="Ebene 1"
     inkscape:groupmode="layer"
     id="layer1"
     transform="translate(0,-308.26772)">
    <g
       transform="matrix(0.95988022,0,0,1.0944857,6.7678765,-96.202726)"
       id="g5977">
      <path
         transform="matrix(0.99922877,0.03926657,0.04353633,-0.99905184,0,0)"
         d="m 463.34934,-989.61945 a 138.12503,85.640167 0 0 1 -75.38769,71.79963 138.12503,85.640167 0 0 1 -137.97821,-4.61847 138.12503,85.640167 0 0 1 -62.48241,-76.4145 l 137.91911,4.67469 z"
         sodipodi:end="3.196205"
         sodipodi:start="0.05325545"
         sodipodi:ry="85.640167"
         sodipodi:rx="138.12503"
         sodipodi:cy="-994.1781"
         sodipodi:cx="325.42014"
         sodipodi:type="arc"
         id="path5031"
         style="opacity:1;fill:#090909;fill-opacity:1;stroke:none;stroke-width:1.38359284;stroke-linecap:round;stroke-linejoin:round;stroke-miterlimit:4;stroke-dasharray:none;stroke-opacity:1" />
      <path
         sodipodi:nodetypes="cscccscc"
         inkscape:connector-curvature="0"
         id="path5048"
         d="M 306.51597,940.39186 C 339.17496,790.80889 289.83202,629.3984 336.81042,527.12788 356.39481,484.49325 312.22677,466.61624 312.22677,466.61624 l -66.82746,3.62131 -31.97574,35.49318 c 24.58134,51.61885 6.50594,117.39812 9.33438,176.2381 6.61916,137.6992 22.84314,262.95685 22.84314,262.95685 z"
         style="fill:#090909;fill-opacity:1;fill-rule:evenodd;stroke:#000000;stroke-width:2.94977117px;stroke-linecap:butt;stroke-linejoin:miter;stroke-opacity:1" />
      <path
         transform="matrix(0.99943664,0.03356178,0.05092937,-0.99870226,0,0)"
         d="m 708.48792,-985.78406 a 149.81293,79.419693 0 0 1 -81.76687,66.58446 149.81293,79.419693 0 0 1 -149.65368,-4.28301 149.81293,79.419693 0 0 1 -67.76955,-70.86413 l 149.58957,4.33514 z"
         sodipodi:end="3.196205"
         sodipodi:start="0.05325545"
         sodipodi:ry="79.419693"
         sodipodi:rx="149.81293"
         sodipodi:cy="-990.0116"
         sodipodi:cx="558.88739"
         sodipodi:type="arc"
         id="path5031-7"
         style="opacity:1;fill:#090909;fill-opacity:1;stroke:none;stroke-width:1.38359284;stroke-linecap:round;stroke-linejoin:round;stroke-miterlimit:4;stroke-dasharray:none;stroke-opacity:1" />
      <path
         sodipodi:nodetypes="cscccscc"
         inkscape:connector-curvature="0"
         id="path5048-8"
         d="M 467.9612,946.31985 C 436.05949,796.7252 484.25828,635.30213 438.36917,533.02361 c -19.13028,-42.63796 24.01361,-60.51629 24.01361,-60.51629 l 65.27794,3.62155 33.07392,37.6471 c -30.20865,37.12918 -8.19467,115.25609 -10.95751,174.10069 -6.46568,137.70989 -22.31353,262.97733 -22.31353,262.97733 z"
         style="fill:#090909;fill-opacity:1;fill-rule:evenodd;stroke:#000000;stroke-width:2.9154861px;stroke-linecap:butt;stroke-linejoin:miter;stroke-opacity:1" />
      <path
         sodipodi:nodetypes="ccscsssc"
         inkscape:connector-curvature="0"
         id="path5975"
         d="m 118.33587,459.67342 c -32.280846,21.63861 44.72825,46.03377 101.16381,67.97508 0,0 79.12445,12.56664 121.74992,15.17093 42.12155,2.57351 126.65551,-1.7322 126.65551,-1.7322 0,0 74.87681,-15.82138 106.54391,-33.88839 27.00724,-15.40842 86.77852,-38.86486 66.9535,-61.13889 -18.80964,-21.13322 -100.66625,18.97534 -227.2126,9.36672 -129.58777,-9.83955 -262.34439,-29.34594 -295.85405,4.24675 z"
         style="fill:#000000;fill-opacity:1;fill-rule:evenodd;stroke:#000000;stroke-width:1.21433878px;stroke-linecap:butt;stroke-linejoin:miter;stroke-opacity:1" />
    </g>
  </g>
</svg>
