<?xml version="1.0" encoding="UTF-8" standalone="no"?>
<svg
   xmlns:dc="http://purl.org/dc/elements/1.1/"
   xmlns:cc="http://creativecommons.org/ns#"
   xmlns:rdf="http://www.w3.org/1999/02/22-rdf-syntax-ns#"
   xmlns:svg="http://www.w3.org/2000/svg"
   xmlns="http://www.w3.org/2000/svg"
   xmlns:sodipodi="http://sodipodi.sourceforge.net/DTD/sodipodi-0.dtd"
   xmlns:inkscape="http://www.inkscape.org/namespaces/inkscape"
   version="1.1"
   id="staff_single"
   viewBox="0 0 64.466998 43.381766"
   height="12.243298mm"
   width="18.194019mm"
   inkscape:version="0.91 r13725"
   sodipodi:docname="staff_single.svg">
  <sodipodi:namedview
     pagecolor="#ffffff"
     bordercolor="#666666"
     borderopacity="1"
     objecttolerance="10"
     gridtolerance="10"
     guidetolerance="10"
     inkscape:pageopacity="0"
     inkscape:pageshadow="2"
     inkscape:window-width="1853"
     inkscape:window-height="1056"
     id="namedview75"
     showgrid="false"
     inkscape:zoom="4.24"
     inkscape:cx="31.997648"
     inkscape:cy="12.736433"
     inkscape:window-x="67"
     inkscape:window-y="24"
     inkscape:window-maximized="1"
     inkscape:current-layer="staff_short"
     fit-margin-top="0"
     fit-margin-left="0"
     fit-margin-right="0"
     fit-margin-bottom="0" />
  <defs
     id="defs5165" />
  <metadata
     id="metadata5168">
    <rdf:RDF>
      <cc:Work
         rdf:about="">
        <dc:format>image/svg+xml</dc:format>
        <dc:type
           rdf:resource="http://purl.org/dc/dcmitype/StillImage" />
        <dc:title></dc:title>
      </cc:Work>
    </rdf:RDF>
  </metadata>
  <path
     inkscape:connector-curvature="0"
     style="fill:none;fill-opacity:1;fill-rule:evenodd;stroke:#535353;stroke-width:1;stroke-linejoin:bevel;stroke-miterlimit:4;stroke-dasharray:none;stroke-opacity:0.88429751;image-rendering:optimizeQuality;shape-rendering:geometricPrecision;text-rendering:geometricPrecision"
     id="line_of_staff_1"
     d="m 0.13692008,11.001236 63.99824992,0 m -63.99824992,0 z"
     class="fil2 str2" />
  <path
     inkscape:connector-curvature="0"
     style="fill:none;fill-opacity:1;fill-rule:evenodd;stroke:#535353;stroke-width:1;stroke-linejoin:bevel;stroke-miterlimit:4;stroke-dasharray:none;stroke-opacity:0.88429751;image-rendering:optimizeQuality;shape-rendering:geometricPrecision;text-rendering:geometricPrecision"
     id="line_of_staff_2"
     d="m 0.13692008,16.649016 63.99824992,0 m -63.99824992,0 z"
     class="fil2 str2" />
  <path
     inkscape:connector-curvature="0"
     style="fill:none;fill-opacity:1;fill-rule:evenodd;stroke:#535353;stroke-width:1;stroke-linejoin:bevel;stroke-miterlimit:4;stroke-dasharray:none;stroke-opacity:0.88429751;image-rendering:optimizeQuality;shape-rendering:geometricPrecision;text-rendering:geometricPrecision"
     id="line_of_staff_3"
     d="m 0.13692008,22.297736 63.99824992,0 m -63.99824992,0 z"
     class="fil2 str2" />
  <path
     inkscape:connector-curvature="0"
     style="fill:none;fill-opacity:1;fill-rule:evenodd;stroke:#535353;stroke-width:1;stroke-linejoin:bevel;stroke-miterlimit:4;stroke-dasharray:none;stroke-opacity:0.88429751;image-rendering:optimizeQuality;shape-rendering:geometricPrecision;text-rendering:geometricPrecision"
     id="line_of_staff_4"
     d="m 0.13692008,27.945506 63.99824992,0 m -63.99824992,0 z"
     class="fil2 str2" />
  <path
     inkscape:connector-curvature="0"
     style="fill:none;fill-opacity:1;fill-rule:evenodd;stroke:#535353;stroke-width:1;stroke-linejoin:bevel;stroke-miterlimit:4;stroke-dasharray:none;stroke-opacity:0.88429751;image-rendering:optimizeQuality;shape-rendering:geometricPrecision;text-rendering:geometricPrecision"
     id="line_of_staff_5"
     d="m 0.13692008,33.593286 63.99824992,0 m -63.99824992,0 z"
     class="fil2 str2" />
  <text
     xml:space="preserve"
     style="font-style:normal;font-variant:normal;font-weight:normal;font-stretch:normal;font-size:18.11989784px;line-height:125.99999905%;font-family:'Linux Biolinum';-inkscape-font-specification:Sans;letter-spacing:0px;word-spacing:0px;fill:#000000;fill-opacity:1;stroke:none;stroke-width:1px;stroke-linecap:butt;stroke-linejoin:miter;stroke-opacity:1"
     x="28.864275"
     y="28.379892"
     id="a4_flat"
     sodipodi:linespacing="126%"><tspan
       id="tspan6805"
       x="28.864275"
       y="28.379892">♭</tspan></text>
  <path
     style="fill:#000000;fill-rule:evenodd;stroke:#000000;stroke-width:0.28025246;image-rendering:optimizeQuality;shape-rendering:geometricPrecision;text-rendering:geometricPrecision"
     id="path591"
     d="m 37.098531,95.3968 c 0.7731,0 1.39617,0.1885 1.86959,0.56585 0.47303,0.377 0.70993,0.87522 0.70993,1.49433 0,1.01084 -0.55238,1.96159 -1.65676,2.85192 -1.10438,0.89069 -2.28734,1.33567 -3.54928,1.33567 -0.7731,0 -1.39617,-0.18849 -1.86959,-0.56585 -0.47341,-0.377 -0.70993,-0.87522 -0.70993,-1.49396 0,-1.01119 0.55238,-1.96195 1.65676,-2.85228 1.10438,-0.89034 2.28734,-1.33568 3.54928,-1.33568 l 0,0 z"
     class="fil1 str1"
     inkscape:connector-curvature="0" />
  <text
     xml:space="preserve"
     style="font-style:normal;font-variant:normal;font-weight:normal;font-stretch:normal;font-size:18.91550255px;line-height:125.99999905%;font-family:'Linux Biolinum';-inkscape-font-specification:Sans;letter-spacing:0px;word-spacing:0px;fill:#000000;fill-opacity:1;stroke:none;stroke-width:1px;stroke-linecap:butt;stroke-linejoin:miter;stroke-opacity:1"
     x="8.2249022"
     y="103.06976"
     id="text6719"
     sodipodi:linespacing="126%"><tspan
       id="tspan6721"
       x="8.2249022"
       y="103.06976">♯</tspan></text>
  <path
     inkscape:connector-curvature="0"
     style="display:inline;fill:#000000;fill-rule:evenodd;stroke:#000000;stroke-width:0.28025246;image-rendering:optimizeQuality;shape-rendering:geometricPrecision;text-rendering:geometricPrecision"
     id="clef"
     d="m 20.387973,28.481636 c 0,1.31301 -0.39445,2.46378 -1.18335,3.45267 -0.78852,0.98854 -1.75075,1.66374 -2.88672,2.02563 0.0162,0.30217 0.0241,0.74751 0.0241,1.33567 0,0.79968 -0.0395,1.69036 -0.11845,2.67134 -0.14213,1.46409 -0.65465,2.7091 -1.53831,3.73541 -0.88327,1.02595 -1.98765,1.53928 -3.31313,1.53928 -1.372111,0 -2.5509406,-0.43779 -3.5368706,-1.31301 -0.98593,-0.87522 -1.4789,-1.93929 -1.4789,-3.19222 0,-0.64895 0.26397,-1.2033 0.79266,-1.66374 0.52831,-0.46045 1.14724,-0.69068 1.85754,-0.69068 0.63059,0 1.1630406,0.23023 1.5969706,0.69068 0.43392,0.46045 0.65089,1.01479 0.65089,1.66374 0,0.58887 -0.21697,1.09429 -0.65089,1.51697 -0.43393,0.42233 -0.9663806,0.63385 -1.5969706,0.63385 -0.23689,0 -0.47341,-0.0453 -0.70993,-0.13562 0.75694,1.0263 1.7819696,1.53928 3.0754906,1.53928 1.07317,0 1.95683,-0.43384 2.65058,-1.30186 0.69414,-0.86803 1.09648,-1.91303 1.20703,-3.13539 0.0786,-0.95076 0.1177,-1.81051 0.1177,-2.58033 0,-0.12051 -0.004,-0.29785 -0.0113,-0.53203 -0.008,-0.23383 -0.0117,-0.41117 -0.0117,-0.53168 -0.53621,0.1054 -1.12018,0.15792 -1.75114,0.15792 -2.28772,0 -4.2400306,-0.78457 -5.8569206,-2.35406 -1.6169,-1.56986 -2.42535,-3.46382 -2.42535,-5.68226 0,-0.79968 0.11055,-1.59935 0.33166,-2.39938 0.22072,-0.80004 0.51665,-1.53964 0.88741,-2.21844 0.37076,-0.67917 0.79642,-1.37345 1.27735,-2.08282 0.48093,-0.70903 0.9897,-1.37309 1.52628,-1.99181 0.53659,-0.61874 1.0810706,-1.27524 1.6330706,-1.96915 -0.56817,-1.62994 -0.9784106,-3.04474 -1.2307206,-4.2448 -0.25269,-1.19969 -0.37903,-2.5465098 -0.37903,-4.0404598 0,-1.01156 0.16582,-1.99613 0.49747,-2.95445 0.3312806,-0.95832 0.7178306,-1.73172 1.1596606,-2.32024 0.44183,-0.58852 0.84379,-1.06408 1.20666,-1.42632997 0.36286,-0.36224 0.60728,-0.54319 0.73324,-0.54319 0.26811,0 0.70993,0.42988 1.32511,1.28998997 0.61517,0.86012 1.19914,1.98462 1.75114,3.37317 0.55238,1.38856 0.82838,2.65623 0.82838,3.80305 0,1.5543898 -0.36286,3.0105598 -1.08859,4.3688998 -0.72572,1.35798 -1.76693,2.86739 -3.12362,4.52754 0.64714,1.8713 1.18335,3.53145 1.60901,4.98044 1.79852,0.0151 3.27365,0.62269 4.42503,1.82237 1.15176,1.1997 1.72745,2.59184 1.72745,4.17609 l 0,0 z m -4.11745,4.5279 c 0.72573,-0.27195 1.33714,-0.7396 1.83424,-1.40402 0.49674,-0.66406 0.74528,-1.43352 0.74528,-2.30873 0,-1.04106 -0.36324,-1.98426 -1.08896,-2.82962 -0.72573,-0.84501 -1.67969,-1.35078 -2.86266,-1.51698 0.74114,2.89797 1.19876,5.58441 1.37212,8.05935 l 0,0 z m -3.83317,-1.65259 c -0.0948,0 -0.25644,-0.0529 -0.48545,-0.15865 -0.22862,-0.1054 -0.50462,-0.27555 -0.82762,-0.50937 -0.32338,-0.23383 -0.63097,-0.50938 -0.92314,-0.8263 -0.2917906,-0.31692 -0.5403406,-0.72808 -0.7456506,-1.23351 -0.20493,-0.50541 -0.30759,-1.03746 -0.30759,-1.59612 0,-1.07127 0.36287,-2.03713 1.0885906,-2.89725 0.72572,-0.86047 1.71204,-1.38855 2.95854,-1.58496 -0.31586,-1.13207 -0.75768,-2.5127 -1.3251,-4.14227 -0.80507,0.99573 -1.41648,1.76914 -1.834241,2.31988 -0.4181396,0.55075 -0.9069696,1.27164 -1.4672496,2.16196 -0.5599,0.89069 -0.96224,1.75836 -1.20703,2.60335 -0.24442,0.84537 -0.36663,1.72059 -0.36663,2.62601 0,1.41842 0.68212,2.65228 2.04669,3.70125 1.3646006,1.04897 2.8750706,1.57345 4.5318206,1.57345 0.67836,0 1.24615,-0.0457 1.70338,-0.13633 -0.17334,-2.58033 -0.64638,-5.36463 -1.41949,-8.35288 -0.97841,0.0604 -1.75151,0.35829 -2.3193,0.89428 -0.56779,0.536 -0.85169,1.15833 -0.85169,1.8677 0,0.5432 0.17748,1.06732 0.53245,1.57309 0.35496,0.50578 0.87199,0.9245 1.54997,1.25653 0.12634,0.12087 0.18951,0.24138 0.18951,0.36225 0,0.12051 -0.0515,0.23382 -0.15379,0.33923 -0.10266,0.10576 -0.22486,0.15864 -0.367,0.15864 l 0,0 z m 1.77483,-27.9347098 c -1.15176,0.69391 -2.05121,1.61085 -2.69796,2.75012 -0.64676,1.13962 -0.97014,2.35801 -0.97014,3.65591 0,1.0414198 0.37828,2.6788898 1.1356,4.9124498 1.10438,-1.4033 1.95645,-2.73105 2.55582,-3.98399 0.59938,-1.2525698 0.89907,-2.5731298 0.89907,-3.9613198 0,-0.73961 -0.059,-1.32453 -0.17749,-1.75476 -0.11807,-0.42988 -0.36624,-0.96947 -0.7449,-1.61841 l 0,0 z"
     class="fil1 str1" />
  <path
     style="fill:none;fill-opacity:1;fill-rule:evenodd;stroke:#535353;stroke-width:1.29999995;stroke-linejoin:bevel;stroke-miterlimit:4;stroke-dasharray:none;stroke-opacity:0.88429751;image-rendering:optimizeQuality;shape-rendering:geometricPrecision;text-rendering:geometricPrecision"
     id="begin_of_staff"
     d="m 0.64999998,10.997266 0,22.59233 m 0,-22.59233 z"
     class="fil2 str2"
     inkscape:connector-curvature="0" />
  <path
     style="fill:none;fill-opacity:1;fill-rule:evenodd;stroke:#535353;stroke-width:1.29999995;stroke-linejoin:bevel;stroke-miterlimit:4;stroke-dasharray:none;stroke-opacity:0.88429751;image-rendering:optimizeQuality;shape-rendering:geometricPrecision;text-rendering:geometricPrecision"
     id="end_of_staff"
     d="m 63.816995,10.822481 0,22.592325 m 0,-22.592325 z"
     class="fil2 str2"
     inkscape:connector-curvature="0" />
  <ellipse
     style="opacity:1;fill:#000000;fill-opacity:1;stroke:none;stroke-width:1.29999995;stroke-linecap:round;stroke-linejoin:round;stroke-miterlimit:4;stroke-dasharray:none;stroke-opacity:1"
     id="a4"
     cx="44.507748"
     cy="25.104467"
     rx="4.4471154"
     ry="2.8444161" />
  <ellipse
     style="opacity:1;fill:#000000;fill-opacity:1;stroke:none;stroke-width:1.29999995;stroke-linecap:round;stroke-linejoin:round;stroke-miterlimit:4;stroke-dasharray:none;stroke-opacity:1"
     id="path4224-3"
     cx="48.740501"
     cy="100.39161"
     rx="4.4471154"
     ry="2.8444161" />
  <text
     xml:space="preserve"
     style="font-style:normal;font-variant:normal;font-weight:normal;font-stretch:normal;font-size:18.11989784px;line-height:125.99999905%;font-family:'Linux Biolinum';-inkscape-font-specification:Sans;letter-spacing:0px;word-spacing:0px;fill:#000000;fill-opacity:1;stroke:none;stroke-width:1px;stroke-linecap:butt;stroke-linejoin:miter;stroke-opacity:1"
     x="18.998657"
     y="103.73689"
     id="a4_flat-3"
     sodipodi:linespacing="126%"><tspan
       id="tspan6805-5"
       x="18.998657"
       y="103.73689">♭</tspan></text>
  <ellipse
     style="opacity:1;fill:#000000;fill-opacity:1;stroke:none;stroke-width:1.29999995;stroke-linecap:round;stroke-linejoin:round;stroke-miterlimit:4;stroke-dasharray:none;stroke-opacity:1"
     id="g4"
     cx="44.507748"
     cy="28.451418"
     rx="4.4471154"
     ry="2.8444161" />
  <text
     xml:space="preserve"
     style="font-style:normal;font-variant:normal;font-weight:normal;font-stretch:normal;font-size:18.91550255px;line-height:125.99999905%;font-family:'Linux Biolinum';-inkscape-font-specification:Sans;letter-spacing:0px;word-spacing:0px;fill:#000000;fill-opacity:1;stroke:none;stroke-width:1px;stroke-linecap:butt;stroke-linejoin:miter;stroke-opacity:1"
     x="28.627157"
     y="34.243519"
     id="g4_sharp"
     sodipodi:linespacing="126%"><tspan
       id="tspan6721-9"
       x="28.627157"
       y="34.243519">♯</tspan></text>
  <ellipse
     style="opacity:1;fill:#000000;fill-opacity:1;stroke:none;stroke-width:1.29999995;stroke-linecap:round;stroke-linejoin:round;stroke-miterlimit:4;stroke-dasharray:none;stroke-opacity:1"
     id="f4"
     cx="44.507748"
     cy="31.142046"
     rx="4.4471154"
     ry="2.8444161" />
  <text
     xml:space="preserve"
     style="font-style:normal;font-variant:normal;font-weight:normal;font-stretch:normal;font-size:18.11989784px;line-height:125.99999905%;font-family:'Linux Biolinum';-inkscape-font-specification:Sans;letter-spacing:0px;word-spacing:0px;fill:#000000;fill-opacity:1;stroke:none;stroke-width:1px;stroke-linecap:butt;stroke-linejoin:miter;stroke-opacity:1"
     x="28.864275"
     y="31.235559"
     id="g4_flat"
     sodipodi:linespacing="126%"><tspan
       id="tspan6805-5-7"
       x="28.864275"
       y="31.235559">♭</tspan></text>
  <text
     xml:space="preserve"
     style="font-style:normal;font-variant:normal;font-weight:normal;font-stretch:normal;font-size:18.91550255px;line-height:125.99999905%;font-family:'Linux Biolinum';-inkscape-font-specification:Sans;letter-spacing:0px;word-spacing:0px;fill:#000000;fill-opacity:1;stroke:none;stroke-width:1px;stroke-linecap:butt;stroke-linejoin:miter;stroke-opacity:1"
     x="28.627157"
     y="37.382618"
     id="f4_sharp"
     sodipodi:linespacing="126%"><tspan
       id="tspan6721-93"
       x="28.627157"
       y="37.382618">♯</tspan></text>
  <ellipse
     style="opacity:1;fill:#000000;fill-opacity:1;stroke:none;stroke-width:1.29999995;stroke-linecap:round;stroke-linejoin:round;stroke-miterlimit:4;stroke-dasharray:none;stroke-opacity:1"
     id="e4"
     cx="44.507748"
     cy="33.384281"
     rx="4.4471154"
     ry="2.8444161" />
  <text
     xml:space="preserve"
     style="font-style:normal;font-variant:normal;font-weight:normal;font-stretch:normal;font-size:18.11989784px;line-height:125.99999905%;font-family:'Linux Biolinum';-inkscape-font-specification:Sans;letter-spacing:0px;word-spacing:0px;fill:#000000;fill-opacity:1;stroke:none;stroke-width:1px;stroke-linecap:butt;stroke-linejoin:miter;stroke-opacity:1"
     x="28.864275"
     y="36.841068"
     id="e4_flat"
     sodipodi:linespacing="126%"><tspan
       id="tspan6805-5-6"
       x="28.864275"
       y="36.841068">♭</tspan></text>
  <ellipse
     style="opacity:1;fill:#000000;fill-opacity:1;stroke:none;stroke-width:1.29999995;stroke-linecap:round;stroke-linejoin:round;stroke-miterlimit:4;stroke-dasharray:none;stroke-opacity:1"
     id="d4"
     cx="44.507748"
     cy="35.850704"
     rx="4.4471154"
     ry="2.8444161" />
  <text
     xml:space="preserve"
     style="font-style:normal;font-variant:normal;font-weight:normal;font-stretch:normal;font-size:18.91550255px;line-height:125.99999905%;font-family:'Linux Biolinum';-inkscape-font-specification:Sans;letter-spacing:0px;word-spacing:0px;fill:#000000;fill-opacity:1;stroke:none;stroke-width:1px;stroke-linecap:butt;stroke-linejoin:miter;stroke-opacity:1"
     x="28.627157"
     y="42.763905"
     id="d4_sharp"
     sodipodi:linespacing="126%"><tspan
       id="tspan6721-1"
       x="28.627157"
       y="42.763905">♯</tspan></text>
  <text
     xml:space="preserve"
     style="font-style:normal;font-variant:normal;font-weight:normal;font-stretch:normal;font-size:18.11989784px;line-height:125.99999905%;font-family:'Linux Biolinum';-inkscape-font-specification:Sans;letter-spacing:0px;word-spacing:0px;fill:#000000;fill-opacity:1;stroke:none;stroke-width:1px;stroke-linecap:butt;stroke-linejoin:miter;stroke-opacity:1"
     x="28.864275"
     y="39.307514"
     id="d4_flat"
     sodipodi:linespacing="126%"><tspan
       id="tspan6805-5-79"
       x="28.864275"
       y="39.307514">♭</tspan></text>
  <ellipse
     style="opacity:1;fill:#000000;fill-opacity:1;stroke:none;stroke-width:1.29999995;stroke-linecap:round;stroke-linejoin:round;stroke-miterlimit:4;stroke-dasharray:none;stroke-opacity:1"
     id="b4"
     cx="44.507748"
     cy="21.949026"
     rx="4.4471154"
     ry="2.8444161" />
  <text
     xml:space="preserve"
     style="font-style:normal;font-variant:normal;font-weight:normal;font-stretch:normal;font-size:18.11989784px;line-height:125.99999905%;font-family:'Linux Biolinum';-inkscape-font-specification:Sans;letter-spacing:0px;word-spacing:0px;fill:#000000;fill-opacity:1;stroke:none;stroke-width:1px;stroke-linecap:butt;stroke-linejoin:miter;stroke-opacity:1"
     x="28.864275"
     y="25.405836"
     id="b4_flat"
     sodipodi:linespacing="126%"><tspan
       id="tspan6805-5-2"
       x="28.864275"
       y="25.405836">♭</tspan></text>
  <ellipse
     style="opacity:1;fill:#000000;fill-opacity:1;stroke:none;stroke-width:1.29999995;stroke-linecap:round;stroke-linejoin:round;stroke-miterlimit:4;stroke-dasharray:none;stroke-opacity:1"
     id="c5"
     cx="44.507748"
     cy="19.034163"
     rx="4.4471154"
     ry="2.8444161" />
  <text
     xml:space="preserve"
     style="font-style:normal;font-variant:normal;font-weight:normal;font-stretch:normal;font-size:18.91550255px;line-height:125.99999905%;font-family:'Linux Biolinum';-inkscape-font-specification:Sans;letter-spacing:0px;word-spacing:0px;fill:#000000;fill-opacity:1;stroke:none;stroke-width:1px;stroke-linecap:butt;stroke-linejoin:miter;stroke-opacity:1"
     x="28.627157"
     y="26.395811"
     id="c5_sharp"
     sodipodi:linespacing="126%"><tspan
       id="tspan6721-5"
       x="28.627157"
       y="26.395811">♯</tspan></text>
  <ellipse
     style="opacity:1;fill:#000000;fill-opacity:1;stroke:none;stroke-width:1.29999995;stroke-linecap:round;stroke-linejoin:round;stroke-miterlimit:4;stroke-dasharray:none;stroke-opacity:1"
     id="d5"
     cx="44.507748"
     cy="16.343519"
     rx="4.4471154"
     ry="2.8444161" />
  <text
     xml:space="preserve"
     style="font-style:normal;font-variant:normal;font-weight:normal;font-stretch:normal;font-size:18.11989784px;line-height:125.99999905%;font-family:'Linux Biolinum';-inkscape-font-specification:Sans;letter-spacing:0px;word-spacing:0px;fill:#000000;fill-opacity:1;stroke:none;stroke-width:1px;stroke-linecap:butt;stroke-linejoin:miter;stroke-opacity:1"
     x="28.864275"
     y="19.800314"
     id="d5_flat"
     sodipodi:linespacing="126%"><tspan
       id="tspan6805-5-28"
       x="28.864275"
       y="19.800314">♭</tspan></text>
  <text
     xml:space="preserve"
     style="font-style:normal;font-variant:normal;font-weight:normal;font-stretch:normal;font-size:18.91550255px;line-height:125.99999905%;font-family:'Linux Biolinum';-inkscape-font-specification:Sans;letter-spacing:0px;word-spacing:0px;fill:#000000;fill-opacity:1;stroke:none;stroke-width:1px;stroke-linecap:butt;stroke-linejoin:miter;stroke-opacity:1"
     x="28.627157"
     y="22.584066"
     id="d5_sharp"
     sodipodi:linespacing="126%"><tspan
       id="tspan6721-7"
       x="28.627157"
       y="22.584066">♯</tspan></text>
  <ellipse
     style="opacity:1;fill:#000000;fill-opacity:1;stroke:none;stroke-width:1.29999995;stroke-linecap:round;stroke-linejoin:round;stroke-miterlimit:4;stroke-dasharray:none;stroke-opacity:1"
     id="e5"
     cx="44.507748"
     cy="12.980215"
     rx="4.4471154"
     ry="2.8444161" />
  <text
     xml:space="preserve"
     style="font-style:normal;font-variant:normal;font-weight:normal;font-stretch:normal;font-size:18.11989784px;line-height:125.99999905%;font-family:'Linux Biolinum';-inkscape-font-specification:Sans;letter-spacing:0px;word-spacing:0px;fill:#000000;fill-opacity:1;stroke:none;stroke-width:1px;stroke-linecap:butt;stroke-linejoin:miter;stroke-opacity:1"
     x="28.864275"
     y="16.661238"
     id="e5_flat"
     sodipodi:linespacing="126%"><tspan
       id="tspan6805-5-1"
       x="28.864275"
       y="16.661238">♭</tspan></text>
  <ellipse
     style="opacity:1;fill:#000000;fill-opacity:1;stroke:none;stroke-width:1.29999995;stroke-linecap:round;stroke-linejoin:round;stroke-miterlimit:4;stroke-dasharray:none;stroke-opacity:1"
     id="f5"
     cx="44.507748"
     cy="10.809752"
     rx="4.4471154"
     ry="2.8444161" />
  <text
     xml:space="preserve"
     style="font-style:normal;font-variant:normal;font-weight:normal;font-stretch:normal;font-size:18.91550255px;line-height:125.99999905%;font-family:'Linux Biolinum';-inkscape-font-specification:Sans;letter-spacing:0px;word-spacing:0px;fill:#000000;fill-opacity:1;stroke:none;stroke-width:1px;stroke-linecap:butt;stroke-linejoin:miter;stroke-opacity:1"
     x="28.627157"
     y="16.779554"
     id="f5_sharp"
     sodipodi:linespacing="126%"><tspan
       id="tspan6721-3"
       x="28.627157"
       y="16.779554">♯</tspan></text>
  <ellipse
     style="opacity:1;fill:#000000;fill-opacity:1;stroke:none;stroke-width:1.29999995;stroke-linecap:round;stroke-linejoin:round;stroke-miterlimit:4;stroke-dasharray:none;stroke-opacity:1"
     id="g5"
     cx="44.507748"
     cy="7.9795594"
     rx="4.4471154"
     ry="2.8444161" />
  <text
     xml:space="preserve"
     style="font-style:normal;font-variant:normal;font-weight:normal;font-stretch:normal;font-size:18.11989784px;line-height:125.99999905%;font-family:'Linux Biolinum';-inkscape-font-specification:Sans;letter-spacing:0px;word-spacing:0px;fill:#000000;fill-opacity:1;stroke:none;stroke-width:1px;stroke-linecap:butt;stroke-linejoin:miter;stroke-opacity:1"
     x="28.864275"
     y="11.509413"
     id="g5_flat"
     sodipodi:linespacing="126%"><tspan
       id="tspan6805-5-4"
       x="28.864275"
       y="11.509413">♭</tspan></text>
  <text
     xml:space="preserve"
     style="font-style:normal;font-variant:normal;font-weight:normal;font-stretch:normal;font-size:18.91550255px;line-height:125.99999905%;font-family:'Linux Biolinum';-inkscape-font-specification:Sans;letter-spacing:0px;word-spacing:0px;fill:#000000;fill-opacity:1;stroke:none;stroke-width:1px;stroke-linecap:butt;stroke-linejoin:miter;stroke-opacity:1"
     x="28.627157"
     y="14.185217"
     id="g5_sharp"
     sodipodi:linespacing="126%"><tspan
       id="tspan6721-8"
       x="28.627157"
       y="14.185217">♯</tspan></text>
</svg>
