<?xml version="1.0" encoding="UTF-8" standalone="no"?>
<svg
   xmlns:dc="http://purl.org/dc/elements/1.1/"
   xmlns:cc="http://creativecommons.org/ns#"
   xmlns:rdf="http://www.w3.org/1999/02/22-rdf-syntax-ns#"
   xmlns:svg="http://www.w3.org/2000/svg"
   xmlns="http://www.w3.org/2000/svg"
   xmlns:sodipodi="http://sodipodi.sourceforge.net/DTD/sodipodi-0.dtd"
   xmlns:inkscape="http://www.inkscape.org/namespaces/inkscape"
   version="1.1"
   id="staff_short"
   viewBox="0 0 356.69907 43.381763"
   height="12.243298mm"
   width="100.6684mm"
   inkscape:version="0.91 r13725"
   sodipodi:docname="staff_short_new2.svg">
  <sodipodi:namedview
     pagecolor="#ffffff"
     bordercolor="#666666"
     borderopacity="1"
     objecttolerance="10"
     gridtolerance="10"
     guidetolerance="10"
     inkscape:pageopacity="0"
     inkscape:pageshadow="2"
     inkscape:window-width="1853"
     inkscape:window-height="1056"
     id="namedview75"
     showgrid="false"
     inkscape:zoom="0.97000534"
     inkscape:cx="178.34953"
     inkscape:cy="21.690882"
     inkscape:window-x="67"
     inkscape:window-y="24"
     inkscape:window-maximized="1"
     inkscape:current-layer="svg5163" />
  <defs
     id="defs5165" />
  <metadata
     id="metadata5168">
    <rdf:RDF>
      <cc:Work
         rdf:about="">
        <dc:format>image/svg+xml</dc:format>
        <dc:type
           rdf:resource="http://purl.org/dc/dcmitype/StillImage" />
        <dc:title />
      </cc:Work>
    </rdf:RDF>
  </metadata>
  <path
     style="fill:none;fill-rule:evenodd;stroke:#000000;stroke-width:1.29754543;stroke-linecap:square;stroke-linejoin:bevel;image-rendering:optimizeQuality;shape-rendering:geometricPrecision;text-rendering:geometricPrecision"
     id="path565"
     d="m 177.01576,23.40656 0,18.638593 m 0,-18.638593 z"
     class="fil2 str0"
     inkscape:connector-curvature="0" />
  <path
     style="fill:#000000;fill-rule:evenodd;stroke:#000000;stroke-width:0.28025246;image-rendering:optimizeQuality;shape-rendering:geometricPrecision;text-rendering:geometricPrecision"
     id="path567"
     d="m 181.83853,19.1535 c 0.7731,0 1.39655,0.18885 1.86959,0.56585 0.47341,0.37736 0.70993,0.87558 0.70993,1.49431 0,1.0112 -0.55238,1.9616 -1.65676,2.85229 -1.10438,0.89032 -2.28734,1.33567 -3.54928,1.33567 -0.7731,0 -1.39617,-0.1885 -1.86959,-0.56585 -0.47303,-0.377 -0.70955,-0.87523 -0.70955,-1.49432 0,-1.01084 0.552,-1.96159 1.65638,-2.85192 1.10438,-0.89069 2.28734,-1.33603 3.54928,-1.33603 l 0,0 z"
     class="fil1 str1"
     inkscape:connector-curvature="0" />
  <text
     xml:space="preserve"
     style="font-style:normal;font-variant:normal;font-weight:normal;font-stretch:normal;font-size:18.11989784px;line-height:125.99999905%;font-family:'Linux Biolinum';-inkscape-font-specification:Sans;letter-spacing:0px;word-spacing:0px;fill:#000000;fill-opacity:1;stroke:none;stroke-width:1px;stroke-linecap:butt;stroke-linejoin:miter;stroke-opacity:1"
     x="166.74707"
     y="25.597574"
     id="text6803"
     sodipodi:linespacing="126%"><tspan
       id="tspan6805"
       x="166.74707"
       y="25.597574">♭</tspan></text>
  <path
     style="fill:none;fill-rule:evenodd;stroke:#000000;stroke-width:1.29754543;stroke-linecap:square;stroke-linejoin:bevel;image-rendering:optimizeQuality;shape-rendering:geometricPrecision;text-rendering:geometricPrecision"
     id="path569"
     d="m 199.29589,23.40656 0,18.638593 m 0,-18.638593 z"
     class="fil2 str0"
     inkscape:connector-curvature="0" />
  <path
     style="fill:#000000;fill-rule:evenodd;stroke:#000000;stroke-width:0.28025246;image-rendering:optimizeQuality;shape-rendering:geometricPrecision;text-rendering:geometricPrecision"
     id="path571"
     d="m 204.11866,19.1535 c 0.77311,0 1.39618,0.18885 1.86959,0.56585 0.47304,0.37736 0.70993,0.87558 0.70993,1.49431 0,1.0112 -0.55237,1.9616 -1.65676,2.85229 -1.10438,0.89032 -2.28734,1.33567 -3.54927,1.33567 -0.77311,0 -1.39618,-0.1885 -1.86959,-0.56585 -0.47341,-0.377 -0.70993,-0.87523 -0.70993,-1.49432 0,-1.01084 0.55238,-1.96159 1.65676,-2.85192 1.10438,-0.89069 2.28734,-1.33603 3.54927,-1.33603 l 0,0 z"
     class="fil1 str1"
     inkscape:connector-curvature="0" />
  <path
     style="fill:none;fill-rule:evenodd;stroke:#000000;stroke-width:1.29754543;stroke-linecap:square;stroke-linejoin:bevel;image-rendering:optimizeQuality;shape-rendering:geometricPrecision;text-rendering:geometricPrecision"
     id="path589"
     d="m 48.949967,29.89637 0,-17.93285 m 0,17.93285 z"
     class="fil2 str0"
     inkscape:connector-curvature="0" />
  <path
     style="fill:#000000;fill-rule:evenodd;stroke:#000000;stroke-width:0.28025246;image-rendering:optimizeQuality;shape-rendering:geometricPrecision;text-rendering:geometricPrecision"
     id="path591"
     d="m 46.747837,27.90109 c 0.7731,0 1.39617,0.1885 1.86959,0.56585 0.47303,0.377 0.70993,0.87521 0.70993,1.49432 0,1.01084 -0.55238,1.96159 -1.65676,2.85192 -1.10438,0.89069 -2.28734,1.33567 -3.54928,1.33567 -0.7731,0 -1.39617,-0.18849 -1.86959,-0.56585 -0.47341,-0.377 -0.70993,-0.87522 -0.70993,-1.49396 0,-1.01119 0.55238,-1.96195 1.65676,-2.85228 1.10438,-0.89033 2.28734,-1.33567 3.54928,-1.33567 l 0,0 z"
     class="fil1 str1"
     inkscape:connector-curvature="0" />
  <path
     style="fill:none;fill-rule:evenodd;stroke:#000000;stroke-width:1.29754543;stroke-linecap:square;stroke-linejoin:bevel;image-rendering:optimizeQuality;shape-rendering:geometricPrecision;text-rendering:geometricPrecision"
     id="path593"
     d="m 78.994357,29.89637 0,-17.93285 m 0,17.93285 z"
     class="fil2 str0"
     inkscape:connector-curvature="0" />
  <path
     style="fill:#000000;fill-rule:evenodd;stroke:#000000;stroke-width:0.28025246;image-rendering:optimizeQuality;shape-rendering:geometricPrecision;text-rendering:geometricPrecision"
     id="path595"
     d="m 76.792227,27.90109 c 0.77348,0 1.39655,0.1885 1.86959,0.56585 0.47341,0.377 0.70993,0.87521 0.70993,1.49432 0,1.01084 -0.552,1.96159 -1.65638,2.85192 -1.10438,0.89069 -2.28772,1.33567 -3.54928,1.33567 -0.77348,0 -1.39655,-0.18849 -1.86959,-0.56585 -0.47341,-0.377 -0.70993,-0.87522 -0.70993,-1.49396 0,-1.01119 0.55201,-1.96195 1.65639,-2.85228 1.10438,-0.89033 2.28771,-1.33567 3.54927,-1.33567 l 0,0 z"
     class="fil1 str1"
     inkscape:connector-curvature="0" />
  <text
     xml:space="preserve"
     style="font-style:normal;font-variant:normal;font-weight:normal;font-stretch:normal;font-size:18.91550255px;line-height:125.99999905%;font-family:'Linux Biolinum';-inkscape-font-specification:Sans;letter-spacing:0px;word-spacing:0px;fill:#000000;fill-opacity:1;stroke:none;stroke-width:1px;stroke-linecap:butt;stroke-linejoin:miter;stroke-opacity:1"
     x="62.089836"
     y="38.396984"
     id="text6719"
     sodipodi:linespacing="126%"><tspan
       id="tspan6721"
       x="62.089836"
       y="38.396984">♯</tspan></text>
  <path
     style="display:inline;fill:none;fill-rule:evenodd;stroke:#000000;stroke-width:1.29754543;stroke-linecap:square;stroke-linejoin:bevel;image-rendering:optimizeQuality;shape-rendering:geometricPrecision;text-rendering:geometricPrecision"
     id="path589-3"
     d="m 101.28038,26.6891 0,-17.93286 m 0,17.93286 z"
     class="fil2 str0"
     inkscape:connector-curvature="0" />
  <path
     style="display:inline;fill:#000000;fill-rule:evenodd;stroke:#000000;stroke-width:0.28025246;image-rendering:optimizeQuality;shape-rendering:geometricPrecision;text-rendering:geometricPrecision"
     id="path591-8"
     d="m 99.07825,24.69382 c 0.7731,0 1.39617,0.1885 1.86959,0.56585 0.47303,0.377 0.70993,0.87521 0.70993,1.49432 0,1.01084 -0.55238,1.96159 -1.65676,2.85192 -1.10438,0.89069 -2.28734,1.33567 -3.54928,1.33567 -0.7731,0 -1.39617,-0.18849 -1.86959,-0.56585 -0.47341,-0.377 -0.709933,-0.87522 -0.709933,-1.49396 0,-1.01119 0.552383,-1.96195 1.656763,-2.85228 1.10438,-0.89033 2.28734,-1.33567 3.54928,-1.33567 l 0,0 z"
     class="fil1 str1"
     inkscape:connector-curvature="0" />
  <path
     style="display:inline;fill:none;fill-rule:evenodd;stroke:#000000;stroke-width:1.29754543;stroke-linecap:square;stroke-linejoin:bevel;image-rendering:optimizeQuality;shape-rendering:geometricPrecision;text-rendering:geometricPrecision"
     id="path593-1"
     d="m 131.32477,26.6891 0,-17.93286 m 0,17.93286 z"
     class="fil2 str0"
     inkscape:connector-curvature="0" />
  <path
     style="display:inline;fill:#000000;fill-rule:evenodd;stroke:#000000;stroke-width:0.28025246;image-rendering:optimizeQuality;shape-rendering:geometricPrecision;text-rendering:geometricPrecision"
     id="path595-9"
     d="m 129.12264,24.69382 c 0.77348,0 1.39655,0.1885 1.86959,0.56585 0.47341,0.377 0.70993,0.87521 0.70993,1.49432 0,1.01084 -0.552,1.96159 -1.65638,2.85192 -1.10438,0.89069 -2.28772,1.33567 -3.54928,1.33567 -0.77348,0 -1.39655,-0.18849 -1.86959,-0.56585 -0.47341,-0.377 -0.70993,-0.87522 -0.70993,-1.49396 0,-1.01119 0.55201,-1.96195 1.65639,-2.85228 1.10438,-0.89033 2.28771,-1.33567 3.54927,-1.33567 l 0,0 z"
     class="fil1 str1"
     inkscape:connector-curvature="0" />
  <text
     xml:space="preserve"
     style="font-style:normal;font-variant:normal;font-weight:normal;font-stretch:normal;font-size:18.91550255px;line-height:125.99999905%;font-family:'Linux Biolinum';-inkscape-font-specification:Sans;letter-spacing:0px;word-spacing:0px;display:inline;fill:#000000;fill-opacity:1;stroke:none;stroke-width:1px;stroke-linecap:butt;stroke-linejoin:miter;stroke-opacity:1"
     x="114.42025"
     y="35.189709"
     id="text6719-8"
     sodipodi:linespacing="126%"><tspan
       id="tspan6721-9"
       x="114.42025"
       y="35.189709">♯</tspan></text>
  <path
     style="display:inline;fill:none;fill-rule:evenodd;stroke:#000000;stroke-width:1.29754543;stroke-linecap:square;stroke-linejoin:bevel;image-rendering:optimizeQuality;shape-rendering:geometricPrecision;text-rendering:geometricPrecision"
     id="path589-8"
     d="m 153.61078,23.77826 0,-17.93285 m 0,17.93285 z"
     class="fil2 str0"
     inkscape:connector-curvature="0" />
  <path
     style="display:inline;fill:#000000;fill-rule:evenodd;stroke:#000000;stroke-width:0.28025246;image-rendering:optimizeQuality;shape-rendering:geometricPrecision;text-rendering:geometricPrecision"
     id="path591-4"
     d="m 151.40865,21.78298 c 0.7731,0 1.39617,0.1885 1.86959,0.56585 0.47303,0.377 0.70993,0.87521 0.70993,1.49432 0,1.01084 -0.55238,1.96159 -1.65676,2.85192 -1.10438,0.89069 -2.28734,1.33567 -3.54928,1.33567 -0.7731,0 -1.39617,-0.18849 -1.86959,-0.56585 -0.47341,-0.377 -0.70993,-0.87522 -0.70993,-1.49396 0,-1.01119 0.55238,-1.96195 1.65676,-2.85228 1.10438,-0.89033 2.28734,-1.33567 3.54928,-1.33567 l 0,0 z"
     class="fil1 str1"
     inkscape:connector-curvature="0" />
  <path
     style="display:inline;fill:none;fill-rule:evenodd;stroke:#000000;stroke-width:1.29754543;stroke-linecap:square;stroke-linejoin:bevel;image-rendering:optimizeQuality;shape-rendering:geometricPrecision;text-rendering:geometricPrecision"
     id="path565-3"
     d="m 221.57604,20.44928 0,18.63859 m 0,-18.63859 z"
     class="fil2 str0"
     inkscape:connector-curvature="0" />
  <path
     style="display:inline;fill:#000000;fill-rule:evenodd;stroke:#000000;stroke-width:0.28025246;image-rendering:optimizeQuality;shape-rendering:geometricPrecision;text-rendering:geometricPrecision"
     id="path567-1"
     d="m 226.39881,16.19622 c 0.7731,0 1.39655,0.18885 1.86959,0.56585 0.47341,0.37736 0.70993,0.87558 0.70993,1.49431 0,1.0112 -0.55238,1.9616 -1.65676,2.85229 -1.10438,0.89032 -2.28734,1.33567 -3.54928,1.33567 -0.7731,0 -1.39617,-0.1885 -1.86959,-0.56585 -0.47303,-0.377 -0.70955,-0.87523 -0.70955,-1.49432 0,-1.01084 0.552,-1.96159 1.65638,-2.85192 1.10438,-0.89069 2.28734,-1.33603 3.54928,-1.33603 l 0,0 z"
     class="fil1 str1"
     inkscape:connector-curvature="0" />
  <path
     style="display:inline;fill:none;fill-rule:evenodd;stroke:#000000;stroke-width:1.29754543;stroke-linecap:square;stroke-linejoin:bevel;image-rendering:optimizeQuality;shape-rendering:geometricPrecision;text-rendering:geometricPrecision"
     id="path569-0"
     d="m 251.70964,20.44928 0,18.63859 m 0,-18.63859 z"
     class="fil2 str0"
     inkscape:connector-curvature="0" />
  <path
     style="display:inline;fill:#000000;fill-rule:evenodd;stroke:#000000;stroke-width:0.28025246;image-rendering:optimizeQuality;shape-rendering:geometricPrecision;text-rendering:geometricPrecision"
     id="path571-9"
     d="m 256.53241,16.19622 c 0.77311,0 1.39618,0.18885 1.86959,0.56585 0.47304,0.37736 0.70993,0.87558 0.70993,1.49431 0,1.0112 -0.55237,1.9616 -1.65676,2.85229 -1.10438,0.89032 -2.28734,1.33567 -3.54927,1.33567 -0.77311,0 -1.39618,-0.1885 -1.86959,-0.56585 -0.47341,-0.377 -0.70993,-0.87523 -0.70993,-1.49432 0,-1.01084 0.55238,-1.96159 1.65676,-2.85192 1.10438,-0.89069 2.28734,-1.33603 3.54927,-1.33603 l 0,0 z"
     class="fil1 str1"
     inkscape:connector-curvature="0" />
  <text
     xml:space="preserve"
     style="font-style:normal;font-variant:normal;font-weight:normal;font-stretch:normal;font-size:18.91550255px;line-height:125.99999905%;font-family:'Linux Biolinum';-inkscape-font-specification:Sans;letter-spacing:0px;word-spacing:0px;display:inline;fill:#000000;fill-opacity:1;stroke:none;stroke-width:1px;stroke-linecap:butt;stroke-linejoin:miter;stroke-opacity:1"
     x="241.60957"
     y="27.368212"
     id="text6719-8-9"
     sodipodi:linespacing="126%"><tspan
       id="tspan6721-9-6"
       x="241.60957"
       y="27.368212">♯</tspan></text>
  <path
     style="display:inline;fill:none;fill-rule:evenodd;stroke:#000000;stroke-width:1.29754543;stroke-linecap:square;stroke-linejoin:bevel;image-rendering:optimizeQuality;shape-rendering:geometricPrecision;text-rendering:geometricPrecision"
     id="path565-3-8"
     d="m 273.98979,17.80824 0,18.63859 m 0,-18.63859 z"
     class="fil2 str0"
     inkscape:connector-curvature="0" />
  <path
     style="display:inline;fill:#000000;fill-rule:evenodd;stroke:#000000;stroke-width:0.28025246;image-rendering:optimizeQuality;shape-rendering:geometricPrecision;text-rendering:geometricPrecision"
     id="path567-1-6"
     d="m 278.81256,13.55518 c 0.7731,0 1.39655,0.18885 1.86959,0.56585 0.47341,0.37736 0.70993,0.87558 0.70993,1.49431 0,1.0112 -0.55238,1.9616 -1.65676,2.85229 -1.10438,0.89032 -2.28734,1.33567 -3.54928,1.33567 -0.7731,0 -1.39617,-0.1885 -1.86959,-0.56585 -0.47303,-0.377 -0.70955,-0.87523 -0.70955,-1.49432 0,-1.01084 0.552,-1.96159 1.65638,-2.85192 1.10438,-0.89069 2.28734,-1.33603 3.54928,-1.33603 l 0,0 z"
     class="fil1 str1"
     inkscape:connector-curvature="0" />
  <path
     style="display:inline;fill:none;fill-rule:evenodd;stroke:#000000;stroke-width:1.29754543;stroke-linecap:square;stroke-linejoin:bevel;image-rendering:optimizeQuality;shape-rendering:geometricPrecision;text-rendering:geometricPrecision"
     id="path569-6"
     d="m 326.56859,14.38013 0,18.6386 m 0,-18.6386 z"
     class="fil2 str0"
     inkscape:connector-curvature="0" />
  <path
     style="display:inline;fill:#000000;fill-rule:evenodd;stroke:#000000;stroke-width:0.28025246;image-rendering:optimizeQuality;shape-rendering:geometricPrecision;text-rendering:geometricPrecision"
     id="path571-91"
     d="m 331.39136,10.12707 c 0.77311,0 1.39618,0.18885 1.86959,0.56585 0.47304,0.37736 0.70993,0.87558 0.70993,1.49431 0,1.0112 -0.55237,1.9616 -1.65676,2.85229 -1.10438,0.89032 -2.28734,1.33567 -3.54927,1.33567 -0.77311,0 -1.39618,-0.1885 -1.86959,-0.56585 -0.47341,-0.377 -0.70993,-0.87523 -0.70993,-1.49432 0,-1.01084 0.55238,-1.96159 1.65676,-2.85192 1.10438,-0.89069 2.28734,-1.33603 3.54927,-1.33603 l 0,0 z"
     class="fil1 str1"
     inkscape:connector-curvature="0" />
  <path
     style="display:inline;fill:none;fill-rule:evenodd;stroke:#000000;stroke-width:1.29754543;stroke-linecap:square;stroke-linejoin:bevel;image-rendering:optimizeQuality;shape-rendering:geometricPrecision;text-rendering:geometricPrecision"
     id="path565-6"
     d="m 304.28844,14.84203 0,18.6386 m 0,-18.6386 z"
     class="fil2 str0"
     inkscape:connector-curvature="0" />
  <path
     style="display:inline;fill:#000000;fill-rule:evenodd;stroke:#000000;stroke-width:0.28025246;image-rendering:optimizeQuality;shape-rendering:geometricPrecision;text-rendering:geometricPrecision"
     id="path567-2"
     d="m 309.11121,10.58897 c 0.7731,0 1.39655,0.18885 1.86959,0.56585 0.47341,0.37736 0.70993,0.87558 0.70993,1.49431 0,1.0112 -0.55238,1.9616 -1.65676,2.85229 -1.10438,0.89032 -2.28734,1.33567 -3.54928,1.33567 -0.7731,0 -1.39617,-0.1885 -1.86959,-0.56585 -0.47303,-0.377 -0.70955,-0.87523 -0.70955,-1.49432 0,-1.01084 0.552,-1.96159 1.65638,-2.85192 1.10438,-0.89069 2.28734,-1.33603 3.54928,-1.33603 l 0,0 z"
     class="fil1 str1"
     inkscape:connector-curvature="0" />
  <text
     xml:space="preserve"
     style="font-style:normal;font-variant:normal;font-weight:normal;font-stretch:normal;font-size:18.11989784px;line-height:125.99999905%;font-family:'Linux Biolinum';-inkscape-font-specification:Sans;letter-spacing:0px;word-spacing:0px;display:inline;fill:#000000;fill-opacity:1;stroke:none;stroke-width:1px;stroke-linecap:butt;stroke-linejoin:miter;stroke-opacity:1"
     x="294.01974"
     y="17.033051"
     id="text6803-4"
     sodipodi:linespacing="126%"><tspan
       id="tspan6805-8"
       x="294.01974"
       y="17.033051">♭</tspan></text>
  <path
     inkscape:connector-curvature="0"
     style="display:inline;fill:#000000;fill-rule:evenodd;stroke:#000000;stroke-width:0.28025246;image-rendering:optimizeQuality;shape-rendering:geometricPrecision;text-rendering:geometricPrecision"
     id="clef"
     d="m 22.65489,28.48164 c 0,1.31301 -0.39445,2.46378 -1.18335,3.45267 -0.78852,0.98854 -1.75075,1.66374 -2.88672,2.02563 0.0162,0.30217 0.0241,0.74751 0.0241,1.33567 0,0.79968 -0.0395,1.69036 -0.11845,2.67134 -0.14213,1.46409 -0.65465,2.7091 -1.53831,3.73541 -0.88327,1.02595 -1.98765,1.53928 -3.31313,1.53928 -1.37211,0 -2.55094,-0.43779 -3.53687,-1.31301 -0.98593,-0.87522 -1.4789,-1.93929 -1.4789,-3.19222 0,-0.64895 0.26397,-1.2033 0.79266,-1.66374 0.52831,-0.46045 1.14724,-0.69068 1.85754,-0.69068 0.63059,0 1.16304,0.23023 1.59697,0.69068 0.43392,0.46045 0.65089,1.01479 0.65089,1.66374 0,0.58887 -0.21697,1.09429 -0.65089,1.51697 -0.43393,0.42233 -0.96638,0.63385 -1.59697,0.63385 -0.23689,0 -0.47341,-0.0453 -0.70993,-0.13562 0.75694,1.0263 1.78197,1.53928 3.07549,1.53928 1.07317,0 1.95683,-0.43384 2.65058,-1.30186 0.69414,-0.86803 1.09648,-1.91303 1.20703,-3.13539 0.0786,-0.95076 0.1177,-1.81051 0.1177,-2.58033 0,-0.12051 -0.004,-0.29785 -0.0113,-0.53203 -0.008,-0.23383 -0.0117,-0.41117 -0.0117,-0.53168 -0.53621,0.1054 -1.12018,0.15792 -1.75114,0.15792 -2.28772,0 -4.24003,-0.78457 -5.85692,-2.35406 -1.6169,-1.56986 -2.42535,-3.46382 -2.42535,-5.68226 0,-0.79968 0.11055,-1.59935 0.33166,-2.39938 0.22072,-0.80004 0.51665,-1.53964 0.88741,-2.21844 0.37076,-0.67917 0.79642,-1.37345 1.27735,-2.08282 0.48093,-0.70903 0.9897,-1.37309 1.52628,-1.99181 0.53659,-0.61874 1.08107,-1.27524 1.63307,-1.96915 -0.56817,-1.62994 -0.97841,-3.04474 -1.23072,-4.2448 -0.25269,-1.19969 -0.37903,-2.54651 -0.37903,-4.04046 0,-1.01156 0.16582,-1.99613 0.49747,-2.95445 0.33128,-0.95832 0.71783,-1.73172 1.15966,-2.32024 0.44183,-0.58852 0.84379,-1.06408 1.20666,-1.42633 0.36286,-0.36224 0.60728,-0.54319 0.73324,-0.54319 0.26811,0 0.70993,0.42988 1.32511,1.28999 0.61517,0.86012 1.19914,1.98462 1.75114,3.37317 0.55238,1.38856 0.82838,2.65623 0.82838,3.80305 0,1.55439 -0.36286,3.01056 -1.08859,4.3689 -0.72572,1.35798 -1.76693,2.86739 -3.12362,4.52754 0.64714,1.8713 1.18335,3.53145 1.60901,4.98044 1.79852,0.0151 3.27365,0.62269 4.42503,1.82237 1.15176,1.1997 1.72745,2.59184 1.72745,4.17609 l 0,0 z m -4.11745,4.5279 c 0.72573,-0.27195 1.33714,-0.7396 1.83424,-1.40402 0.49674,-0.66406 0.74528,-1.43352 0.74528,-2.30873 0,-1.04106 -0.36324,-1.98426 -1.08896,-2.82962 -0.72573,-0.84501 -1.67969,-1.35078 -2.86266,-1.51698 0.74114,2.89797 1.19876,5.58441 1.37212,8.05935 l 0,0 z m -3.83317,-1.65259 c -0.0948,0 -0.25644,-0.0529 -0.48545,-0.15865 C 13.9902,31.0929 13.7142,30.92275 13.3912,30.68893 13.06782,30.4551 12.76023,30.17955 12.46806,29.86263 12.17627,29.54571 11.92772,29.13455 11.72241,28.62912 11.51748,28.12371 11.41482,27.59166 11.41482,27.033 c 0,-1.07127 0.36287,-2.03713 1.08859,-2.89725 0.72572,-0.86047 1.71204,-1.38855 2.95854,-1.58496 -0.31586,-1.13207 -0.75768,-2.5127 -1.3251,-4.14227 -0.80507,0.99573 -1.41648,1.76914 -1.83424,2.31988 -0.41814,0.55075 -0.90697,1.27164 -1.46725,2.16196 -0.5599,0.89069 -0.96224,1.75836 -1.20703,2.60335 -0.24442,0.84537 -0.36663,1.72059 -0.36663,2.62601 0,1.41842 0.68212,2.65228 2.04669,3.70125 1.3646,1.04897 2.87507,1.57345 4.53182,1.57345 0.67836,0 1.24615,-0.0457 1.70338,-0.13633 -0.17334,-2.58033 -0.64638,-5.36463 -1.41949,-8.35288 -0.97841,0.0604 -1.75151,0.35829 -2.3193,0.89428 -0.56779,0.536 -0.85169,1.15833 -0.85169,1.8677 0,0.5432 0.17748,1.06732 0.53245,1.57309 0.35496,0.50578 0.87199,0.9245 1.54997,1.25653 0.12634,0.12087 0.18951,0.24138 0.18951,0.36225 0,0.12051 -0.0515,0.23382 -0.15379,0.33923 -0.10266,0.10576 -0.22486,0.15864 -0.367,0.15864 l 0,0 z M 16.4791,3.42224 C 15.32734,4.11615 14.42789,5.03309 13.78114,6.17236 13.13438,7.31198 12.811,8.53037 12.811,9.82827 c 0,1.04142 0.37828,2.67889 1.1356,4.91245 1.10438,-1.4033 1.95645,-2.73105 2.55582,-3.98399 0.59938,-1.25257 0.89907,-2.57313 0.89907,-3.96132 0,-0.73961 -0.059,-1.32453 -0.17749,-1.75476 C 17.10593,4.61077 16.85776,4.07118 16.4791,3.42224 l 0,0 z"
     class="fil1 str1" />
  <path
     inkscape:connector-curvature="0"
     style="fill:none;fill-rule:evenodd;stroke:#000000;stroke-width:2.38501287;stroke-linejoin:bevel;image-rendering:optimizeQuality;shape-rendering:geometricPrecision;text-rendering:geometricPrecision"
     id="line_of_staff_1"
     d="M -8.5119545e-6,11.00124 355.10401,11.00124 m -355.1040185119545,0 z"
     class="fil2 str2" />
  <path
     inkscape:connector-curvature="0"
     style="fill:none;fill-rule:evenodd;stroke:#000000;stroke-width:2.38501287;stroke-linejoin:bevel;image-rendering:optimizeQuality;shape-rendering:geometricPrecision;text-rendering:geometricPrecision"
     id="line_of_staff_2"
     d="M -8.5119545e-6,16.64902 355.10401,16.64902 m -355.1040185119545,0 z"
     class="fil2 str2" />
  <path
     inkscape:connector-curvature="0"
     style="fill:none;fill-rule:evenodd;stroke:#000000;stroke-width:2.38501287;stroke-linejoin:bevel;image-rendering:optimizeQuality;shape-rendering:geometricPrecision;text-rendering:geometricPrecision"
     id="line_of_staff_3"
     d="M -8.5119545e-6,22.29774 355.10401,22.29774 m -355.1040185119545,0 z"
     class="fil2 str2" />
  <path
     inkscape:connector-curvature="0"
     style="fill:none;fill-rule:evenodd;stroke:#000000;stroke-width:2.38501287;stroke-linejoin:bevel;image-rendering:optimizeQuality;shape-rendering:geometricPrecision;text-rendering:geometricPrecision"
     id="line_of_staff_4"
     d="M -8.5119545e-6,27.94551 355.10401,27.94551 m -355.1040185119545,0 z"
     class="fil2 str2" />
  <path
     inkscape:connector-curvature="0"
     style="fill:none;fill-rule:evenodd;stroke:#000000;stroke-width:2.38501287;stroke-linejoin:bevel;image-rendering:optimizeQuality;shape-rendering:geometricPrecision;text-rendering:geometricPrecision"
     id="line_of_staff_5"
     d="M -8.5119545e-6,33.59329 355.10401,33.59329 m -355.1040185119545,0 z"
     class="fil2 str2" />
  <path
     style="fill:none;fill-rule:evenodd;stroke:#000000;stroke-width:1.29754543;stroke-linejoin:bevel;image-rendering:optimizeQuality;shape-rendering:geometricPrecision;text-rendering:geometricPrecision"
     id="end_of_staff_1"
     d="m 350.99384,10.99727 0,22.59233 m 0,-22.59233 z"
     class="fil2 str2"
     inkscape:connector-curvature="0" />
  <path
     style="fill:none;fill-rule:evenodd;stroke:#000000;stroke-width:1.29754543;stroke-linejoin:bevel;image-rendering:optimizeQuality;shape-rendering:geometricPrecision;text-rendering:geometricPrecision"
     id="end_of_staff_2"
     d="m 354.54545,11.06287 0,22.59233 m 0,-22.59233 z"
     class="fil2 str2"
     inkscape:connector-curvature="0" />
  <rect
     style="opacity:0%;cursor:pointer;fill:#000000;fill-opacity:1;stroke:none;stroke-width:0.79621941;stroke-linecap:round;stroke-linejoin:round;stroke-miterlimit:4;stroke-dasharray:none;stroke-opacity:1"
     id="btn_f4"
     width="23.499031"
     height="43.0993"
     x="36.283844"
     y="0.68792111" />
  <rect
     style="opacity:0%;cursor:pointer;fill:#000000;fill-opacity:1;stroke:none;stroke-width:0.79621941;stroke-linecap:round;stroke-linejoin:round;stroke-miterlimit:4;stroke-dasharray:none;stroke-opacity:1"
     id="btn_f4_sharp"
     width="23.499031"
     height="43.0993"
     x="61.800152"
     y="0.68792111" />
  <rect
     style="opacity:0%;cursor:pointer;fill:#000000;fill-opacity:1;stroke:none;stroke-width:0.79621941;stroke-linecap:round;stroke-linejoin:round;stroke-miterlimit:4;stroke-dasharray:none;stroke-opacity:1"
     id="btn_g4"
     width="23.499031"
     height="43.0993"
     x="87.316452"
     y="0.68792111" />
  <rect
     style="opacity:0%;cursor:pointer;fill:#000000;fill-opacity:1;stroke:none;stroke-width:0.79621941;stroke-linecap:round;stroke-linejoin:round;stroke-miterlimit:4;stroke-dasharray:none;stroke-opacity:1"
     id="btn_g4_sharp"
     width="23.499031"
     height="43.0993"
     x="112.83277"
     y="0.68792111" />
  <rect
     style="opacity:0%;cursor:pointer;fill:#000000;fill-opacity:1;stroke:none;stroke-width:0.79621941;stroke-linecap:round;stroke-linejoin:round;stroke-miterlimit:4;stroke-dasharray:none;stroke-opacity:1"
     id="btn_a4"
     width="23.499031"
     height="43.0993"
     x="138.34908"
     y="0.68792111" />
  <rect
     style="opacity:0%;cursor:pointer;fill:#000000;fill-opacity:1;stroke:none;stroke-width:0.79621941;stroke-linecap:round;stroke-linejoin:round;stroke-miterlimit:4;stroke-dasharray:none;stroke-opacity:1"
     id="btn_b4_flat"
     width="23.499031"
     height="43.0993"
     x="163.86539"
     y="0.68792111" />
  <rect
     style="opacity:0%;cursor:pointer;fill:#000000;fill-opacity:1;stroke:none;stroke-width:0.79621941;stroke-linecap:round;stroke-linejoin:round;stroke-miterlimit:4;stroke-dasharray:none;stroke-opacity:1"
     id="btn_b4"
     width="23.499031"
     height="43.0993"
     x="189.38168"
     y="0.68792111" />
  <rect
     style="opacity:0%;cursor:pointer;fill:#000000;fill-opacity:1;stroke:none;stroke-width:0.79621941;stroke-linecap:round;stroke-linejoin:round;stroke-miterlimit:4;stroke-dasharray:none;stroke-opacity:1"
     id="btn_c5"
     width="23.499031"
     height="43.0993"
     x="214.89801"
     y="0.68792111" />
  <rect
     style="opacity:0%;cursor:pointer;fill:#000000;fill-opacity:1;stroke:none;stroke-width:0.79621941;stroke-linecap:round;stroke-linejoin:round;stroke-miterlimit:4;stroke-dasharray:none;stroke-opacity:1"
     id="btn_c5_sharp"
     width="23.499031"
     height="43.0993"
     x="240.41431"
     y="0.68792111" />
  <rect
     style="opacity:0%;cursor:pointer;fill:#000000;fill-opacity:1;stroke:none;stroke-width:0.79621941;stroke-linecap:round;stroke-linejoin:round;stroke-miterlimit:4;stroke-dasharray:none;stroke-opacity:1"
     id="btn_d5"
     width="23.499031"
     height="43.0993"
     x="265.9306"
     y="0.68792111" />
  <rect
     style="opacity:0%;cursor:pointer;fill:#000000;fill-opacity:1;stroke:none;stroke-width:0.79621941;stroke-linecap:round;stroke-linejoin:round;stroke-miterlimit:4;stroke-dasharray:none;stroke-opacity:1"
     id="btn_e5_flat"
     width="23.499031"
     height="43.0993"
     x="291.4469"
     y="0.68792111" />
  <rect
     style="opacity:0%;cursor:pointer;fill:#000000;fill-opacity:1;stroke:none;stroke-width:0.79621941;stroke-linecap:round;stroke-linejoin:round;stroke-miterlimit:4;stroke-dasharray:none;stroke-opacity:1"
     id="btn_e5"
     width="23.499031"
     height="43.0993"
     x="316.9632"
     y="0.68792111" />
</svg>
