<?xml version="1.0" encoding="UTF-8" standalone="no"?>
<svg
   xmlns:dc="http://purl.org/dc/elements/1.1/"
   xmlns:cc="http://creativecommons.org/ns#"
   xmlns:rdf="http://www.w3.org/1999/02/22-rdf-syntax-ns#"
   xmlns:svg="http://www.w3.org/2000/svg"
   xmlns="http://www.w3.org/2000/svg"
   xmlns:sodipodi="http://sodipodi.sourceforge.net/DTD/sodipodi-0.dtd"
   xmlns:inkscape="http://www.inkscape.org/namespaces/inkscape"
   version="1.1"
   id="staff_single"
   viewBox="0 0 64.480447 78.206398"
   height="22.071581mm"
   width="18.197815mm"
   inkscape:version="0.91 r13725"
   sodipodi:docname="staff_single.svg">
  <sodipodi:namedview
     pagecolor="#ffffff"
     bordercolor="#666666"
     borderopacity="1"
     objecttolerance="10"
     gridtolerance="10"
     guidetolerance="10"
     inkscape:pageopacity="0"
     inkscape:pageshadow="2"
     inkscape:window-width="1853"
     inkscape:window-height="1056"
     id="namedview75"
     showgrid="false"
     inkscape:zoom="9.73"
     inkscape:cx="24.398939"
     inkscape:cy="40.36621"
     inkscape:window-x="67"
     inkscape:window-y="24"
     inkscape:window-maximized="1"
     inkscape:current-layer="staff_single"
     fit-margin-top="0"
     fit-margin-left="0"
     fit-margin-right="0"
     fit-margin-bottom="0" />
  <defs
     id="defs5165" />
  <metadata
     id="metadata5168">
    <rdf:RDF>
      <cc:Work
         rdf:about="">
        <dc:format>image/svg+xml</dc:format>
        <dc:type
           rdf:resource="http://purl.org/dc/dcmitype/StillImage" />
        <dc:title></dc:title>
      </cc:Work>
    </rdf:RDF>
  </metadata>
  <path
     inkscape:connector-curvature="0"
     style="fill:none;fill-opacity:1;fill-rule:evenodd;stroke:#535353;stroke-width:1;stroke-linejoin:bevel;stroke-miterlimit:4;stroke-dasharray:none;stroke-opacity:0.88429751;image-rendering:optimizeQuality;shape-rendering:geometricPrecision;text-rendering:geometricPrecision"
     id="line_of_staff_1"
     d="m 0.13691626,25.083484 63.99824974,0 m -63.99824974,0 z"
     class="fil2 str2" />
  <path
     inkscape:connector-curvature="0"
     style="fill:none;fill-opacity:1;fill-rule:evenodd;stroke:#535353;stroke-width:1;stroke-linejoin:bevel;stroke-miterlimit:4;stroke-dasharray:none;stroke-opacity:0.88429751;image-rendering:optimizeQuality;shape-rendering:geometricPrecision;text-rendering:geometricPrecision"
     id="line_of_staff_2"
     d="m 0.13691626,30.731264 63.99824974,0 m -63.99824974,0 z"
     class="fil2 str2" />
  <path
     inkscape:connector-curvature="0"
     style="fill:none;fill-opacity:1;fill-rule:evenodd;stroke:#535353;stroke-width:1;stroke-linejoin:bevel;stroke-miterlimit:4;stroke-dasharray:none;stroke-opacity:0.88429751;image-rendering:optimizeQuality;shape-rendering:geometricPrecision;text-rendering:geometricPrecision"
     id="line_of_staff_3"
     d="m 0.13691626,36.379984 63.99824974,0 m -63.99824974,0 z"
     class="fil2 str2" />
  <path
     inkscape:connector-curvature="0"
     style="fill:none;fill-opacity:1;fill-rule:evenodd;stroke:#535353;stroke-width:1;stroke-linejoin:bevel;stroke-miterlimit:4;stroke-dasharray:none;stroke-opacity:0.88429751;image-rendering:optimizeQuality;shape-rendering:geometricPrecision;text-rendering:geometricPrecision"
     id="line_of_staff_4"
     d="m 0.13691626,42.027754 63.99824974,0 m -63.99824974,0 z"
     class="fil2 str2" />
  <path
     inkscape:connector-curvature="0"
     style="fill:none;fill-opacity:1;fill-rule:evenodd;stroke:#535353;stroke-width:1;stroke-linejoin:bevel;stroke-miterlimit:4;stroke-dasharray:none;stroke-opacity:0.88429751;image-rendering:optimizeQuality;shape-rendering:geometricPrecision;text-rendering:geometricPrecision"
     id="line_of_staff_5"
     d="m 0.13691626,47.675534 63.99824974,0 m -63.99824974,0 z"
     class="fil2 str2" />
  <text
     xml:space="preserve"
     style="font-style:normal;font-variant:normal;font-weight:normal;font-stretch:normal;font-size:18.11989784px;line-height:125.99999905%;font-family:'Linux Biolinum';-inkscape-font-specification:Sans;letter-spacing:0px;word-spacing:0px;fill:#000000;fill-opacity:1;stroke:none;stroke-width:1px;stroke-linecap:butt;stroke-linejoin:miter;stroke-opacity:1"
     x="22.66427"
     y="42.462139"
     id="a4_flat"
     sodipodi:linespacing="126%"><tspan
       id="tspan6805"
       x="22.66427"
       y="42.462139">♭</tspan></text>
  <path
     style="fill:#000000;fill-rule:evenodd;stroke:#000000;stroke-width:0.28025246;image-rendering:optimizeQuality;shape-rendering:geometricPrecision;text-rendering:geometricPrecision"
     id="path591"
     d="m 37.098527,109.47905 c 0.7731,0 1.39617,0.1885 1.86959,0.56585 0.47303,0.377 0.70993,0.87522 0.70993,1.49433 0,1.01084 -0.55238,1.96159 -1.65676,2.85192 -1.10438,0.89069 -2.28734,1.33567 -3.54928,1.33567 -0.7731,0 -1.39617,-0.18849 -1.86959,-0.56585 -0.47341,-0.377 -0.70993,-0.87522 -0.70993,-1.49396 0,-1.01119 0.55238,-1.96195 1.65676,-2.85228 1.10438,-0.89034 2.28734,-1.33568 3.54928,-1.33568 l 0,0 z"
     class="fil1 str1"
     inkscape:connector-curvature="0" />
  <text
     xml:space="preserve"
     style="font-style:normal;font-variant:normal;font-weight:normal;font-stretch:normal;font-size:18.91550255px;line-height:125.99999905%;font-family:'Linux Biolinum';-inkscape-font-specification:Sans;letter-spacing:0px;word-spacing:0px;fill:#000000;fill-opacity:1;stroke:none;stroke-width:1px;stroke-linecap:butt;stroke-linejoin:miter;stroke-opacity:1"
     x="8.2248983"
     y="117.15201"
     id="text6719"
     sodipodi:linespacing="126%"><tspan
       id="tspan6721"
       x="8.2248983"
       y="117.15201">♯</tspan></text>
  <path
     inkscape:connector-curvature="0"
     style="display:inline;fill:#000000;fill-rule:evenodd;stroke:#000000;stroke-width:0.28025246;image-rendering:optimizeQuality;shape-rendering:geometricPrecision;text-rendering:geometricPrecision"
     id="clef"
     d="m 20.387969,42.563884 c 0,1.31301 -0.39445,2.46378 -1.18335,3.45267 -0.78852,0.98854 -1.75075,1.66374 -2.88672,2.02563 0.0162,0.30217 0.0241,0.74751 0.0241,1.33567 0,0.79968 -0.0395,1.69036 -0.11845,2.67134 -0.14213,1.46409 -0.65465,2.7091 -1.53831,3.73541 -0.88327,1.02595 -1.98765,1.53928 -3.31313,1.53928 -1.3721108,0 -2.5509404,-0.43779 -3.5368704,-1.31301 -0.98593,-0.87522 -1.4789,-1.93929 -1.4789,-3.19222 0,-0.64895 0.26397,-1.2033 0.79266,-1.66374 0.52831,-0.46045 1.14724,-0.69068 1.85754,-0.69068 0.63059,0 1.1630404,0.23023 1.5969704,0.69068 0.43392,0.46045 0.65089,1.01479 0.65089,1.66374 0,0.58887 -0.21697,1.09429 -0.65089,1.51697 -0.43393,0.42233 -0.9663804,0.63385 -1.5969704,0.63385 -0.23689,0 -0.47341,-0.0453 -0.70993,-0.13562 0.75694,1.0263 1.7819694,1.53928 3.0754904,1.53928 1.07317,0 1.95683,-0.43384 2.65058,-1.30186 0.69414,-0.86803 1.09648,-1.91303 1.20703,-3.13539 0.0786,-0.95076 0.1177,-1.81051 0.1177,-2.58033 0,-0.12051 -0.004,-0.29785 -0.0113,-0.53203 -0.008,-0.23383 -0.0117,-0.41117 -0.0117,-0.53168 -0.53621,0.1054 -1.12018,0.15792 -1.75114,0.15792 -2.28772,0 -4.2400304,-0.78457 -5.8569204,-2.35406 -1.6169,-1.56986 -2.42535,-3.46382 -2.42535,-5.68226 0,-0.79968 0.11055,-1.59935 0.33166,-2.39938 0.22072,-0.80004 0.51665,-1.53964 0.88741,-2.21844 0.37076,-0.67917 0.79642,-1.37345 1.27735,-2.08282 0.48093,-0.70903 0.9897,-1.37309 1.52628,-1.99181 0.53659,-0.61874 1.0810704,-1.27524 1.6330704,-1.96915 -0.56817,-1.62994 -0.9784104,-3.04474 -1.2307204,-4.2448 -0.25269,-1.19969 -0.37903,-2.54651 -0.37903,-4.04046 0,-1.01156 0.16582,-1.99613 0.49747,-2.95445 0.3312804,-0.95832 0.7178304,-1.73172 1.1596604,-2.32024 0.44183,-0.58852 0.84379,-1.06408 1.20666,-1.42633 0.36286,-0.36224 0.60728,-0.54319 0.73324,-0.54319 0.26811,0 0.70993,0.42988 1.32511,1.28999 0.61517,0.86012 1.19914,1.98462 1.75114,3.37317 0.55238,1.38856 0.82838,2.65623 0.82838,3.80305 0,1.55439 -0.36286,3.01056 -1.08859,4.3689 -0.72572,1.35798 -1.76693,2.86739 -3.12362,4.52754 0.64714,1.8713 1.18335,3.53145 1.60901,4.98044 1.79852,0.0151 3.27365,0.62269 4.42503,1.82237 1.15176,1.1997 1.72745,2.59184 1.72745,4.17609 l 0,0 z m -4.11745,4.5279 c 0.72573,-0.27195 1.33714,-0.7396 1.83424,-1.40402 0.49674,-0.66406 0.74528,-1.43352 0.74528,-2.30873 0,-1.04106 -0.36324,-1.98426 -1.08896,-2.82962 -0.72573,-0.84501 -1.67969,-1.35078 -2.86266,-1.51698 0.74114,2.89797 1.19876,5.58441 1.37212,8.05935 l 0,0 z m -3.83317,-1.65259 c -0.0948,0 -0.25644,-0.0529 -0.48545,-0.15865 -0.22862,-0.1054 -0.50462,-0.27555 -0.82762,-0.50937 -0.32338,-0.23383 -0.63097,-0.50938 -0.92314,-0.8263 -0.2917904,-0.31692 -0.5403404,-0.72808 -0.7456504,-1.23351 -0.20493,-0.50541 -0.30759,-1.03746 -0.30759,-1.59612 0,-1.07127 0.36287,-2.03713 1.0885904,-2.89725 0.72572,-0.86047 1.71204,-1.38855 2.95854,-1.58496 -0.31586,-1.13207 -0.75768,-2.5127 -1.3251,-4.14227 -0.80507,0.99573 -1.41648,1.76914 -1.834241,2.31988 -0.4181394,0.55075 -0.9069694,1.27164 -1.4672494,2.16196 -0.5599,0.89069 -0.96224,1.75836 -1.20703,2.60335 -0.24442,0.84537 -0.36663,1.72059 -0.36663,2.62601 0,1.41842 0.68212,2.65228 2.04669,3.70125 1.3646004,1.04897 2.8750704,1.57345 4.5318204,1.57345 0.67836,0 1.24615,-0.0457 1.70338,-0.13633 -0.17334,-2.58033 -0.64638,-5.36463 -1.41949,-8.35288 -0.97841,0.0604 -1.75151,0.35829 -2.3193,0.89428 -0.56779,0.536 -0.85169,1.15833 -0.85169,1.8677 0,0.5432 0.17748,1.06732 0.53245,1.57309 0.35496,0.50578 0.87199,0.9245 1.54997,1.25653 0.12634,0.12087 0.18951,0.24138 0.18951,0.36225 0,0.12051 -0.0515,0.23382 -0.15379,0.33923 -0.10266,0.10576 -0.22486,0.15864 -0.367,0.15864 l 0,0 z m 1.77483,-27.93471 c -1.15176,0.69391 -2.05121,1.61085 -2.69796,2.75012 -0.64676,1.13962 -0.97014,2.35801 -0.97014,3.65591 0,1.04142 0.37828,2.67889 1.1356,4.91245 1.10438,-1.4033 1.95645,-2.73105 2.55582,-3.98399 0.59938,-1.25257 0.89907,-2.57313 0.89907,-3.96132 0,-0.73961 -0.059,-1.32453 -0.17749,-1.75476 -0.11807,-0.42988 -0.36624,-0.96947 -0.7449,-1.61841 l 0,0 z"
     class="fil1 str1" />
  <path
     style="fill:none;fill-opacity:1;fill-rule:evenodd;stroke:#535353;stroke-width:1.29999995;stroke-linejoin:bevel;stroke-miterlimit:4;stroke-dasharray:none;stroke-opacity:0.88429751;image-rendering:optimizeQuality;shape-rendering:geometricPrecision;text-rendering:geometricPrecision"
     id="begin_of_staff"
     d="m 0.64999616,25.079514 0,22.59233 m 0,-22.59233 z"
     class="fil2 str2"
     inkscape:connector-curvature="0" />
  <ellipse
     style="opacity:1;fill:#000000;fill-opacity:1;stroke:none;stroke-width:1.29999995;stroke-linecap:round;stroke-linejoin:round;stroke-miterlimit:4;stroke-dasharray:none;stroke-opacity:1"
     id="path4224-3"
     cx="48.740498"
     cy="114.47385"
     rx="4.4471154"
     ry="2.8444161" />
  <text
     xml:space="preserve"
     style="font-style:normal;font-variant:normal;font-weight:normal;font-stretch:normal;font-size:18.11989784px;line-height:125.99999905%;font-family:'Linux Biolinum';-inkscape-font-specification:Sans;letter-spacing:0px;word-spacing:0px;fill:#000000;fill-opacity:1;stroke:none;stroke-width:1px;stroke-linecap:butt;stroke-linejoin:miter;stroke-opacity:1"
     x="18.998653"
     y="117.81914"
     id="a4_flat-3"
     sodipodi:linespacing="126%"><tspan
       id="tspan6805-5"
       x="18.998653"
       y="117.81914">♭</tspan></text>
  <text
     xml:space="preserve"
     style="font-style:normal;font-variant:normal;font-weight:normal;font-stretch:normal;font-size:18.91550255px;line-height:125.99999905%;font-family:'Linux Biolinum';-inkscape-font-specification:Sans;letter-spacing:0px;word-spacing:0px;fill:#000000;fill-opacity:1;stroke:none;stroke-width:1px;stroke-linecap:butt;stroke-linejoin:miter;stroke-opacity:1"
     x="22.427153"
     y="48.325768"
     id="g4_sharp"
     sodipodi:linespacing="126%"><tspan
       id="tspan6721-9"
       x="22.427153"
       y="48.325768">♯</tspan></text>
  <text
     xml:space="preserve"
     style="font-style:normal;font-variant:normal;font-weight:normal;font-stretch:normal;font-size:18.11989784px;line-height:125.99999905%;font-family:'Linux Biolinum';-inkscape-font-specification:Sans;letter-spacing:0px;word-spacing:0px;fill:#000000;fill-opacity:1;stroke:none;stroke-width:1px;stroke-linecap:butt;stroke-linejoin:miter;stroke-opacity:1"
     x="22.66427"
     y="45.317806"
     id="g4_flat"
     sodipodi:linespacing="126%"><tspan
       id="tspan6805-5-7"
       x="22.66427"
       y="45.317806">♭</tspan></text>
  <text
     xml:space="preserve"
     style="font-style:normal;font-variant:normal;font-weight:normal;font-stretch:normal;font-size:18.91550255px;line-height:125.99999905%;font-family:'Linux Biolinum';-inkscape-font-specification:Sans;letter-spacing:0px;word-spacing:0px;fill:#000000;fill-opacity:1;stroke:none;stroke-width:1px;stroke-linecap:butt;stroke-linejoin:miter;stroke-opacity:1"
     x="22.427153"
     y="51.464867"
     id="f4_sharp"
     sodipodi:linespacing="126%"><tspan
       id="tspan6721-93"
       x="22.427153"
       y="51.464867">♯</tspan></text>
  <text
     xml:space="preserve"
     style="font-style:normal;font-variant:normal;font-weight:normal;font-stretch:normal;font-size:18.11989784px;line-height:125.99999905%;font-family:'Linux Biolinum';-inkscape-font-specification:Sans;letter-spacing:0px;word-spacing:0px;fill:#000000;fill-opacity:1;stroke:none;stroke-width:1px;stroke-linecap:butt;stroke-linejoin:miter;stroke-opacity:1"
     x="22.66427"
     y="50.923317"
     id="e4_flat"
     sodipodi:linespacing="126%"><tspan
       id="tspan6805-5-6"
       x="22.66427"
       y="50.923317">♭</tspan></text>
  <text
     xml:space="preserve"
     style="font-style:normal;font-variant:normal;font-weight:normal;font-stretch:normal;font-size:18.91550255px;line-height:125.99999905%;font-family:'Linux Biolinum';-inkscape-font-specification:Sans;letter-spacing:0px;word-spacing:0px;fill:#000000;fill-opacity:1;stroke:none;stroke-width:1px;stroke-linecap:butt;stroke-linejoin:miter;stroke-opacity:1"
     x="22.427153"
     y="56.846153"
     id="d4_sharp"
     sodipodi:linespacing="126%"><tspan
       id="tspan6721-1"
       x="22.427153"
       y="56.846153">♯</tspan></text>
  <text
     xml:space="preserve"
     style="font-style:normal;font-variant:normal;font-weight:normal;font-stretch:normal;font-size:18.11989784px;line-height:125.99999905%;font-family:'Linux Biolinum';-inkscape-font-specification:Sans;letter-spacing:0px;word-spacing:0px;fill:#000000;fill-opacity:1;stroke:none;stroke-width:1px;stroke-linecap:butt;stroke-linejoin:miter;stroke-opacity:1"
     x="22.66427"
     y="53.389763"
     id="d4_flat"
     sodipodi:linespacing="126%"><tspan
       id="tspan6805-5-79"
       x="22.66427"
       y="53.389763">♭</tspan></text>
  <text
     xml:space="preserve"
     style="font-style:normal;font-variant:normal;font-weight:normal;font-stretch:normal;font-size:18.11989784px;line-height:125.99999905%;font-family:'Linux Biolinum';-inkscape-font-specification:Sans;letter-spacing:0px;word-spacing:0px;fill:#000000;fill-opacity:1;stroke:none;stroke-width:1px;stroke-linecap:butt;stroke-linejoin:miter;stroke-opacity:1"
     x="22.66427"
     y="39.488083"
     id="b4_flat"
     sodipodi:linespacing="126%"><tspan
       id="tspan6805-5-2"
       x="22.66427"
       y="39.488083">♭</tspan></text>
  <text
     xml:space="preserve"
     style="font-style:normal;font-variant:normal;font-weight:normal;font-stretch:normal;font-size:18.91550255px;line-height:125.99999905%;font-family:'Linux Biolinum';-inkscape-font-specification:Sans;letter-spacing:0px;word-spacing:0px;fill:#000000;fill-opacity:1;stroke:none;stroke-width:1px;stroke-linecap:butt;stroke-linejoin:miter;stroke-opacity:1"
     x="22.427153"
     y="40.478058"
     id="c5_sharp"
     sodipodi:linespacing="126%"><tspan
       id="tspan6721-5"
       x="22.427153"
       y="40.478058">♯</tspan></text>
  <text
     xml:space="preserve"
     style="font-style:normal;font-variant:normal;font-weight:normal;font-stretch:normal;font-size:18.11989784px;line-height:125.99999905%;font-family:'Linux Biolinum';-inkscape-font-specification:Sans;letter-spacing:0px;word-spacing:0px;fill:#000000;fill-opacity:1;stroke:none;stroke-width:1px;stroke-linecap:butt;stroke-linejoin:miter;stroke-opacity:1"
     x="22.66427"
     y="33.882561"
     id="d5_flat"
     sodipodi:linespacing="126%"><tspan
       id="tspan6805-5-28"
       x="22.66427"
       y="33.882561">♭</tspan></text>
  <text
     xml:space="preserve"
     style="font-style:normal;font-variant:normal;font-weight:normal;font-stretch:normal;font-size:18.91550255px;line-height:125.99999905%;font-family:'Linux Biolinum';-inkscape-font-specification:Sans;letter-spacing:0px;word-spacing:0px;fill:#000000;fill-opacity:1;stroke:none;stroke-width:1px;stroke-linecap:butt;stroke-linejoin:miter;stroke-opacity:1"
     x="22.427153"
     y="36.666313"
     id="d5_sharp"
     sodipodi:linespacing="126%"><tspan
       id="tspan6721-7"
       x="22.427153"
       y="36.666313">♯</tspan></text>
  <text
     xml:space="preserve"
     style="font-style:normal;font-variant:normal;font-weight:normal;font-stretch:normal;font-size:18.11989784px;line-height:125.99999905%;font-family:'Linux Biolinum';-inkscape-font-specification:Sans;letter-spacing:0px;word-spacing:0px;fill:#000000;fill-opacity:1;stroke:none;stroke-width:1px;stroke-linecap:butt;stroke-linejoin:miter;stroke-opacity:1"
     x="22.66427"
     y="30.743484"
     id="e5_flat"
     sodipodi:linespacing="126%"><tspan
       id="tspan6805-5-1"
       x="22.66427"
       y="30.743484">♭</tspan></text>
  <text
     xml:space="preserve"
     style="font-style:normal;font-variant:normal;font-weight:normal;font-stretch:normal;font-size:18.91550255px;line-height:125.99999905%;font-family:'Linux Biolinum';-inkscape-font-specification:Sans;letter-spacing:0px;word-spacing:0px;fill:#000000;fill-opacity:1;stroke:none;stroke-width:1px;stroke-linecap:butt;stroke-linejoin:miter;stroke-opacity:1"
     x="22.427153"
     y="30.861801"
     id="f5_sharp"
     sodipodi:linespacing="126%"><tspan
       id="tspan6721-3"
       x="22.427153"
       y="30.861801">♯</tspan></text>
  <text
     xml:space="preserve"
     style="font-style:normal;font-variant:normal;font-weight:normal;font-stretch:normal;font-size:18.11989784px;line-height:125.99999905%;font-family:'Linux Biolinum';-inkscape-font-specification:Sans;letter-spacing:0px;word-spacing:0px;fill:#000000;fill-opacity:1;stroke:none;stroke-width:1px;stroke-linecap:butt;stroke-linejoin:miter;stroke-opacity:1"
     x="22.66427"
     y="25.59166"
     id="g5_flat"
     sodipodi:linespacing="126%"><tspan
       id="tspan6805-5-4"
       x="22.66427"
       y="25.59166">♭</tspan></text>
  <text
     xml:space="preserve"
     style="font-style:normal;font-variant:normal;font-weight:normal;font-stretch:normal;font-size:18.91550255px;line-height:125.99999905%;font-family:'Linux Biolinum';-inkscape-font-specification:Sans;letter-spacing:0px;word-spacing:0px;fill:#000000;fill-opacity:1;stroke:none;stroke-width:1px;stroke-linecap:butt;stroke-linejoin:miter;stroke-opacity:1"
     x="22.427153"
     y="28.267464"
     id="g5_sharp"
     sodipodi:linespacing="126%"><tspan
       id="tspan6721-8"
       x="22.427153"
       y="28.267464">♯</tspan></text>
  <g
     id="notes_on_lines"
     transform="translate(-7.8420487,14.082248)">
    <path
       style="fill:#131516;fill-rule:evenodd;stroke:#131516;stroke-width:0.03336721;image-rendering:optimizeQuality;shape-rendering:geometricPrecision;text-rendering:geometricPrecision"
       id="d5"
       d="m 46.374852,16.099058 c 0.04431,0.825954 0.288168,1.517971 0.731501,2.053727 0.44334,0.535754 0.975339,0.80363 1.59601,0.80363 0.476584,-0.05581 0.809088,-0.212068 0.997504,-0.479947 0.177338,-0.267875 0.266006,-0.736661 0.266006,-1.395194 -0.06647,-0.848277 -0.310342,-1.540295 -0.753667,-2.064887 -0.443342,-0.524593 -0.975348,-0.792471 -1.618183,-0.792471 -0.443333,0.07814 -0.753673,0.234394 -0.94209,0.491109 -0.188415,0.245555 -0.277081,0.71434 -0.277081,1.384033 z m -2.770851,0.468785 c 0,-0.680854 0.24383,-1.22777 0.742586,-1.640748 0.498756,-0.424139 1.097255,-0.71434 1.795512,-0.892925 0.687173,-0.167423 1.330009,-0.256715 1.917421,-0.256715 0.642843,0 1.318929,0.08929 2.017188,0.256715 0.709336,0.167424 1.318924,0.468786 1.83984,0.881763 0.520925,0.412978 0.798007,0.971056 0.820171,1.65191 0,0.680855 -0.243833,1.238934 -0.742586,1.663072 -0.498752,0.42414 -1.097263,0.7255 -1.784427,0.904086 -0.698255,0.178585 -1.352177,0.267877 -1.972848,0.267877 -0.665,0 -1.341087,-0.08929 -2.050422,-0.256716 C 45.488177,18.967578 44.889671,18.677377 44.379837,18.253238 43.881089,17.8291 43.615079,17.271021 43.604,16.567843 Z"
       class="fil1 str1"
       inkscape:connector-curvature="0" />
    <path
       style="fill:#131516;fill-rule:evenodd;stroke:#131516;stroke-width:0.03336721;image-rendering:optimizeQuality;shape-rendering:geometricPrecision;text-rendering:geometricPrecision"
       id="b4"
       d="m 46.374852,21.706601 c 0.04431,0.825955 0.288168,1.517972 0.731501,2.053728 0.44334,0.535753 0.97534,0.80363 1.59601,0.80363 0.476584,-0.05581 0.809088,-0.212069 0.997505,-0.479947 0.177338,-0.267876 0.266005,-0.736662 0.266005,-1.395195 -0.06647,-0.848277 -0.310341,-1.540294 -0.753667,-2.064886 -0.443342,-0.524593 -0.975347,-0.792471 -1.618184,-0.792471 -0.443333,0.07814 -0.753672,0.234394 -0.94209,0.491108 -0.188414,0.245555 -0.277081,0.71434 -0.277081,1.384033 z m -2.770851,0.468785 c 0,-0.680854 0.24383,-1.22777 0.742586,-1.640747 0.498756,-0.424139 1.097255,-0.71434 1.795512,-0.892925 0.687173,-0.167424 1.330009,-0.256716 1.917421,-0.256716 0.642843,0 1.31893,0.08929 2.017188,0.256716 0.709336,0.167423 1.318924,0.468786 1.83984,0.881762 0.520925,0.412978 0.798007,0.971056 0.820171,1.65191 0,0.680856 -0.243833,1.238935 -0.742586,1.663073 -0.498752,0.424139 -1.097263,0.7255 -1.784427,0.904086 -0.698255,0.178584 -1.352177,0.267876 -1.972847,0.267876 -0.665,0 -1.341087,-0.08929 -2.050422,-0.256715 -0.698258,-0.178585 -1.296765,-0.468785 -1.806599,-0.892924 -0.498748,-0.424139 -0.764758,-0.982218 -0.775837,-1.685396 z"
       class="fil1 str1"
       inkscape:connector-curvature="0" />
    <path
       style="fill:#131516;fill-rule:evenodd;stroke:#131516;stroke-width:0.03336721;image-rendering:optimizeQuality;shape-rendering:geometricPrecision;text-rendering:geometricPrecision"
       id="g4"
       d="m 46.374852,27.314147 c 0.04431,0.825954 0.288168,1.517971 0.731501,2.053727 0.44334,0.535754 0.97534,0.80363 1.59601,0.80363 0.476584,-0.05581 0.809088,-0.212068 0.997505,-0.479947 0.177338,-0.267875 0.266005,-0.736661 0.266005,-1.395194 -0.06647,-0.848277 -0.310341,-1.540295 -0.753667,-2.064887 -0.443342,-0.524593 -0.975347,-0.792471 -1.618184,-0.792471 -0.443333,0.07814 -0.753672,0.234394 -0.94209,0.491109 -0.188414,0.245555 -0.277081,0.71434 -0.277081,1.384033 z m -2.770851,0.468785 c 0,-0.680854 0.24383,-1.22777 0.742586,-1.640748 0.498756,-0.424139 1.097255,-0.71434 1.795512,-0.892925 0.687173,-0.167423 1.330009,-0.256715 1.917421,-0.256715 0.642843,0 1.31893,0.08929 2.017188,0.256715 0.709336,0.167424 1.318924,0.468786 1.83984,0.881763 0.520925,0.412978 0.798007,0.971056 0.820171,1.65191 0,0.680855 -0.243833,1.238934 -0.742586,1.663072 -0.498752,0.42414 -1.097263,0.7255 -1.784427,0.904086 -0.698255,0.178585 -1.352177,0.267877 -1.972847,0.267877 -0.665,0 -1.341087,-0.08929 -2.050422,-0.256716 C 45.488179,30.182667 44.889672,29.892466 44.379838,29.468328 43.88109,29.044189 43.61508,28.48611 43.604001,27.782932 Z"
       class="fil1 str1"
       inkscape:connector-curvature="0" />
    <path
       style="fill:#131516;fill-rule:evenodd;stroke:#131516;stroke-width:0.03336721;image-rendering:optimizeQuality;shape-rendering:geometricPrecision;text-rendering:geometricPrecision"
       id="e4"
       d="m 46.374852,32.921689 c 0.04431,0.825955 0.288168,1.517972 0.731501,2.053728 0.44334,0.535754 0.97534,0.80363 1.59601,0.80363 0.476584,-0.05581 0.809088,-0.212068 0.997505,-0.479947 0.177338,-0.267875 0.266005,-0.736661 0.266005,-1.395194 -0.06647,-0.848278 -0.310341,-1.540296 -0.753667,-2.064888 -0.443342,-0.524593 -0.975347,-0.792471 -1.618184,-0.792471 -0.443333,0.07814 -0.753672,0.234394 -0.94209,0.491109 -0.188414,0.245555 -0.277081,0.71434 -0.277081,1.384033 z m -2.770851,0.468786 c 0,-0.680855 0.24383,-1.227771 0.742586,-1.640749 0.498756,-0.424139 1.097255,-0.71434 1.795512,-0.892925 0.687173,-0.167423 1.330009,-0.256715 1.917421,-0.256715 0.642843,0 1.31893,0.08929 2.017188,0.256715 0.709336,0.167424 1.318924,0.468786 1.83984,0.881763 0.520925,0.412978 0.798007,0.971056 0.820171,1.651911 0,0.680855 -0.243833,1.238934 -0.742586,1.663072 -0.498752,0.42414 -1.097263,0.7255 -1.784427,0.904086 -0.698255,0.178585 -1.352177,0.267877 -1.972847,0.267877 -0.665,0 -1.341087,-0.08929 -2.050422,-0.256716 C 45.488179,35.79021 44.889672,35.500009 44.379838,35.075871 43.88109,34.651732 43.61508,34.093653 43.604001,33.390475 Z"
       class="fil1 str1"
       inkscape:connector-curvature="0" />
    <path
       style="fill:#131516;fill-rule:evenodd;stroke:#131516;stroke-width:0.03336721;image-rendering:optimizeQuality;shape-rendering:geometricPrecision;text-rendering:geometricPrecision"
       id="c4"
       d="m 46.374852,38.529234 c 0.04431,0.825954 0.288168,1.517971 0.731501,2.053727 0.44334,0.535754 0.97534,0.80363 1.59601,0.80363 0.476584,-0.05581 0.809088,-0.212068 0.997505,-0.479947 0.177338,-0.267875 0.266005,-0.736661 0.266005,-1.395194 -0.06647,-0.848277 -0.310341,-1.540295 -0.753667,-2.064887 -0.443342,-0.524593 -0.975347,-0.792471 -1.618184,-0.792471 -0.443333,0.07814 -0.753672,0.234394 -0.94209,0.491109 -0.188414,0.245555 -0.277081,0.71434 -0.277081,1.384033 z m -2.770851,0.468785 c 0,-0.680854 0.24383,-1.22777 0.742586,-1.640748 0.498756,-0.424139 1.097255,-0.71434 1.795512,-0.892925 0.687173,-0.167423 1.330009,-0.256715 1.917421,-0.256715 0.642843,0 1.31893,0.08929 2.017188,0.256715 0.709336,0.167424 1.318924,0.468786 1.83984,0.881763 0.520925,0.412978 0.798007,0.971056 0.820171,1.65191 0,0.680855 -0.243833,1.238934 -0.742586,1.663072 -0.498752,0.42414 -1.097263,0.7255 -1.784427,0.904086 -0.698255,0.178585 -1.352177,0.267877 -1.972847,0.267877 -0.665,0 -1.341087,-0.08929 -2.050422,-0.256716 -0.698258,-0.178584 -1.296765,-0.468785 -1.806599,-0.892923 -0.498748,-0.424139 -0.764758,-0.982218 -0.775837,-1.685396 z"
       class="fil1 str1"
       inkscape:connector-curvature="0" />
    <path
       style="fill:#131516;fill-rule:evenodd;stroke:#131516;stroke-width:0.03336721;image-rendering:optimizeQuality;shape-rendering:geometricPrecision;text-rendering:geometricPrecision"
       id="f5"
       d="m 46.374852,10.491512 c 0.04431,0.825955 0.288168,1.517972 0.731501,2.053728 0.44334,0.535754 0.97534,0.80363 1.59601,0.80363 0.476584,-0.05581 0.809088,-0.212068 0.997505,-0.479947 0.177338,-0.267875 0.266005,-0.736661 0.266005,-1.395194 -0.06647,-0.848278 -0.310341,-1.5402958 -0.753667,-2.0648878 -0.443342,-0.524593 -0.975347,-0.792471 -1.618184,-0.792471 -0.443333,0.07814 -0.753672,0.234394 -0.94209,0.491109 -0.188414,0.245555 -0.277081,0.71434 -0.277081,1.3840328 z m -2.770851,0.468785 c 0,-0.680854 0.24383,-1.2277698 0.742586,-1.6407478 0.498756,-0.424139 1.097255,-0.71434 1.795512,-0.892925 0.687173,-0.167423 1.330009,-0.256715 1.917421,-0.256715 0.642843,0 1.31893,0.08929 2.017188,0.256715 0.709336,0.167424 1.318924,0.468786 1.83984,0.881763 0.520925,0.412978 0.798007,0.9710558 0.820171,1.6519098 0,0.680856 -0.243833,1.238935 -0.742586,1.663073 -0.498752,0.42414 -1.097263,0.7255 -1.784427,0.904086 -0.698255,0.178585 -1.352177,0.267877 -1.972847,0.267877 -0.665,0 -1.341087,-0.08929 -2.050422,-0.256716 -0.698258,-0.178584 -1.296765,-0.468785 -1.806599,-0.892923 -0.498748,-0.424139 -0.764758,-0.982218 -0.775837,-1.685397 z"
       class="fil1 str1"
       inkscape:connector-curvature="0" />
    <path
       style="fill:#131516;fill-rule:evenodd;stroke:#131516;stroke-width:0.03336721;image-rendering:optimizeQuality;shape-rendering:geometricPrecision;text-rendering:geometricPrecision"
       id="f3"
       d="m 46.374852,49.588558 c 0.04431,0.825954 0.288168,1.517971 0.731501,2.053727 0.44334,0.535754 0.975339,0.80363 1.59601,0.80363 0.476584,-0.05581 0.809088,-0.212068 0.997504,-0.479947 0.177338,-0.267875 0.266006,-0.736661 0.266006,-1.395194 -0.06647,-0.848277 -0.310342,-1.540295 -0.753667,-2.064887 -0.443342,-0.524593 -0.975348,-0.792471 -1.618183,-0.792471 -0.443333,0.07814 -0.753673,0.234394 -0.94209,0.491109 -0.188415,0.245555 -0.277081,0.71434 -0.277081,1.384033 z m -2.770851,0.468785 c 0,-0.680854 0.24383,-1.22777 0.742586,-1.640748 0.498756,-0.424139 1.097255,-0.71434 1.795512,-0.892925 0.687173,-0.167423 1.330009,-0.256715 1.917421,-0.256715 0.642843,0 1.318929,0.08929 2.017188,0.256715 0.709336,0.167424 1.318924,0.468786 1.83984,0.881763 0.520925,0.412978 0.798007,0.971056 0.820171,1.65191 0,0.680855 -0.243833,1.238934 -0.742586,1.663072 -0.498752,0.42414 -1.097263,0.7255 -1.784427,0.904086 -0.698255,0.178585 -1.352177,0.267877 -1.972848,0.267877 -0.665,0 -1.341087,-0.08929 -2.050422,-0.256716 C 45.488177,52.457078 44.889671,52.166877 44.379837,51.742738 43.881089,51.3186 43.615079,50.760521 43.604,50.057343 Z"
       class="fil1 str1"
       inkscape:connector-curvature="0" />
    <path
       style="fill:#131516;fill-rule:evenodd;stroke:#131516;stroke-width:0.03336721;image-rendering:optimizeQuality;shape-rendering:geometricPrecision;text-rendering:geometricPrecision"
       id="d3"
       d="m 46.374851,55.196101 c 0.04431,0.825955 0.288168,1.517972 0.731501,2.053728 0.44334,0.535753 0.975341,0.80363 1.59601,0.80363 0.476585,-0.05581 0.809089,-0.212069 0.997505,-0.479947 0.177338,-0.267876 0.266005,-0.736662 0.266005,-1.395195 -0.06647,-0.848277 -0.310341,-1.540294 -0.753667,-2.064886 -0.443342,-0.524593 -0.975347,-0.792471 -1.618183,-0.792471 -0.443333,0.07814 -0.753672,0.234394 -0.94209,0.491108 -0.188414,0.245555 -0.277081,0.71434 -0.277081,1.384033 z M 43.604,55.664886 c 0,-0.680854 0.24383,-1.22777 0.742586,-1.640747 0.498756,-0.424139 1.097255,-0.71434 1.795513,-0.892925 0.687173,-0.167424 1.330008,-0.256716 1.91742,-0.256716 0.642843,0 1.318931,0.08929 2.017188,0.256716 0.709336,0.167423 1.318924,0.468786 1.83984,0.881762 0.520925,0.412978 0.798007,0.971056 0.820172,1.65191 0,0.680856 -0.243834,1.238935 -0.742587,1.663073 -0.498752,0.424139 -1.097263,0.7255 -1.784427,0.904086 -0.698255,0.178584 -1.352177,0.267876 -1.972847,0.267876 -0.665,0 -1.341087,-0.08929 -2.050422,-0.256715 C 45.488178,58.064621 44.889671,57.774421 44.379837,57.350282 43.88109,56.926143 43.615079,56.368064 43.604,55.664886 Z"
       class="fil1 str1"
       inkscape:connector-curvature="0" />
    <path
       style="fill:#131516;fill-rule:evenodd;stroke:#131516;stroke-width:0.03336721;image-rendering:optimizeQuality;shape-rendering:geometricPrecision;text-rendering:geometricPrecision"
       id="b2"
       d="m 46.374851,60.803647 c 0.04431,0.825954 0.288168,1.517971 0.731501,2.053727 0.44334,0.535754 0.975341,0.80363 1.59601,0.80363 0.476585,-0.05581 0.809089,-0.212068 0.997505,-0.479947 0.177338,-0.267875 0.266005,-0.736661 0.266005,-1.395194 -0.06647,-0.848277 -0.310341,-1.540295 -0.753667,-2.064887 -0.443342,-0.524593 -0.975347,-0.792471 -1.618183,-0.792471 -0.443333,0.07814 -0.753672,0.234394 -0.94209,0.491109 -0.188414,0.245555 -0.277081,0.71434 -0.277081,1.384033 z M 43.604,61.272432 c 0,-0.680854 0.24383,-1.22777 0.742586,-1.640748 0.498756,-0.424139 1.097255,-0.71434 1.795513,-0.892925 0.687173,-0.167423 1.330008,-0.256715 1.91742,-0.256715 0.642843,0 1.318931,0.08929 2.017188,0.256715 0.709336,0.167424 1.318924,0.468786 1.83984,0.881763 0.520925,0.412978 0.798007,0.971056 0.820172,1.65191 0,0.680855 -0.243834,1.238934 -0.742587,1.663072 -0.498752,0.42414 -1.097263,0.7255 -1.784427,0.904086 -0.698255,0.178585 -1.352177,0.267877 -1.972847,0.267877 -0.665,0 -1.341087,-0.08929 -2.050422,-0.256716 C 45.488178,63.672167 44.889671,63.381966 44.379837,62.957828 43.88109,62.533689 43.615079,61.97561 43.604,61.272432 Z"
       class="fil1 str1"
       inkscape:connector-curvature="0" />
    <path
       style="fill:#131516;fill-rule:evenodd;stroke:#131516;stroke-width:0.03336721;image-rendering:optimizeQuality;shape-rendering:geometricPrecision;text-rendering:geometricPrecision"
       id="a3"
       d="m 46.374851,43.981011 c 0.04431,0.825955 0.288168,1.517972 0.731501,2.053729 0.44334,0.535754 0.975341,0.80363 1.59601,0.80363 0.476585,-0.05581 0.809089,-0.212068 0.997505,-0.479947 0.177338,-0.267875 0.266005,-0.736662 0.266005,-1.395195 -0.06647,-0.848278 -0.310341,-1.540295 -0.753667,-2.064887 -0.443342,-0.524593 -0.975347,-0.792472 -1.618183,-0.792472 -0.443333,0.07814 -0.753672,0.234395 -0.94209,0.49111 -0.188414,0.245555 -0.277081,0.71434 -0.277081,1.384032 z M 43.604,44.449796 c 0,-0.680854 0.24383,-1.227769 0.742586,-1.640747 0.498756,-0.424139 1.097255,-0.714341 1.795513,-0.892926 0.687173,-0.167423 1.330008,-0.256715 1.91742,-0.256715 0.642843,0 1.318931,0.08929 2.017188,0.256715 0.709336,0.167424 1.318924,0.468787 1.83984,0.881764 0.520925,0.412978 0.798007,0.971055 0.820172,1.651909 0,0.680856 -0.243834,1.238935 -0.742587,1.663074 -0.498752,0.42414 -1.097263,0.7255 -1.784427,0.904086 -0.698255,0.178585 -1.352177,0.267877 -1.972847,0.267877 -0.665,0 -1.341087,-0.08929 -2.050422,-0.256716 C 45.488178,46.849533 44.889671,46.559332 44.379837,46.135194 43.88109,45.711054 43.615079,45.152975 43.604,44.449796 Z"
       class="fil1 str1"
       inkscape:connector-curvature="0" />
    <path
       style="fill:#131516;fill-rule:evenodd;stroke:#131516;stroke-width:0.03336721;image-rendering:optimizeQuality;shape-rendering:geometricPrecision;text-rendering:geometricPrecision"
       id="e6"
       d="m 46.092528,-6.1364128 c 0.04431,0.825954 0.288168,1.517971 0.731501,2.053727 0.44334,0.535754 0.975339,0.80363 1.59601,0.80363 0.476584,-0.05581 0.809088,-0.212068 0.997504,-0.479947 0.177338,-0.267875 0.266006,-0.736661 0.266006,-1.395194 -0.06647,-0.848277 -0.310342,-1.540295 -0.753667,-2.064887 -0.443342,-0.524593 -0.975348,-0.792471 -1.618183,-0.792471 -0.443333,0.07814 -0.753673,0.234394 -0.94209,0.491109 -0.188415,0.245555 -0.277081,0.71434 -0.277081,1.384033 z m -2.770851,0.468785 c 0,-0.680854 0.24383,-1.22777 0.742586,-1.640748 0.498756,-0.424139 1.097255,-0.71434 1.795512,-0.892925 0.687173,-0.167423 1.330009,-0.256715 1.917421,-0.256715 0.642843,0 1.318929,0.08929 2.017188,0.256715 0.709336,0.167424 1.318924,0.468786 1.83984,0.881763 0.520925,0.412978 0.798007,0.971056 0.820171,1.65191 0,0.680855 -0.243833,1.238934 -0.742586,1.663072 -0.498752,0.42414 -1.097263,0.7255 -1.784427,0.904086 -0.698255,0.178585 -1.352177,0.267877 -1.972848,0.267877 -0.665,0 -1.341087,-0.08929 -2.050422,-0.256716 -0.698259,-0.178584 -1.296765,-0.468785 -1.806599,-0.892924 -0.498748,-0.424138 -0.764758,-0.982217 -0.775837,-1.685395 z"
       class="fil1 str1"
       inkscape:connector-curvature="0" />
    <path
       style="fill:#131516;fill-rule:evenodd;stroke:#131516;stroke-width:0.03336721;image-rendering:optimizeQuality;shape-rendering:geometricPrecision;text-rendering:geometricPrecision"
       id="c6"
       d="m 46.092527,-0.52886976 c 0.04431,0.825955 0.288168,1.517972 0.731501,2.05372796 0.44334,0.535753 0.975341,0.80363 1.59601,0.80363 0.476585,-0.05581 0.809089,-0.212069 0.997505,-0.479947 0.177338,-0.267876 0.266005,-0.736662 0.266005,-1.39519496 -0.06647,-0.848277 -0.310341,-1.54029404 -0.753667,-2.06488604 -0.443342,-0.524593 -0.975347,-0.792471 -1.618183,-0.792471 -0.443333,0.07814 -0.753672,0.234394 -0.94209,0.491108 -0.188414,0.245555 -0.277081,0.71434 -0.277081,1.38403304 z m -2.770851,0.468785 c 0,-0.680854 0.24383,-1.22777004 0.742586,-1.64074704 0.498756,-0.424139 1.097255,-0.71434 1.795513,-0.892925 0.687173,-0.167424 1.330008,-0.256716 1.91742,-0.256716 0.642843,0 1.318931,0.08929 2.017188,0.256716 0.709336,0.167423 1.318924,0.468786 1.83984,0.881762 0.520925,0.412978 0.798007,0.97105604 0.820172,1.65191004 0,0.680856 -0.243834,1.23893496 -0.742587,1.66307296 -0.498752,0.424139 -1.097263,0.7255 -1.784427,0.904086 -0.698255,0.178584 -1.352177,0.267876 -1.972847,0.267876 -0.665,0 -1.341087,-0.08929 -2.050422,-0.256715 -0.698258,-0.178585 -1.296765,-0.468785 -1.806599,-0.892924 -0.498747,-0.424139 -0.764758,-0.98221796 -0.775837,-1.68539596 z"
       class="fil1 str1"
       inkscape:connector-curvature="0" />
    <path
       style="fill:#131516;fill-rule:evenodd;stroke:#131516;stroke-width:0.03336721;image-rendering:optimizeQuality;shape-rendering:geometricPrecision;text-rendering:geometricPrecision"
       id="a5"
       d="m 46.092527,5.0786772 c 0.04431,0.825954 0.288168,1.5179711 0.731501,2.0537271 0.44334,0.535754 0.975341,0.80363 1.59601,0.80363 0.476585,-0.05581 0.809089,-0.212068 0.997505,-0.479947 0.177338,-0.267875 0.266005,-0.736661 0.266005,-1.395194 -0.06647,-0.8482771 -0.310341,-1.5402951 -0.753667,-2.0648871 -0.443342,-0.524593 -0.975347,-0.792471 -1.618183,-0.792471 -0.443333,0.07814 -0.753672,0.234394 -0.94209,0.491109 -0.188414,0.245555 -0.277081,0.71434 -0.277081,1.384033 z m -2.770851,0.468785 c 0,-0.680854 0.24383,-1.22777 0.742586,-1.640748 0.498756,-0.424139 1.097255,-0.71434 1.795513,-0.892925 0.687173,-0.167424 1.330008,-0.256716 1.91742,-0.256716 0.642843,0 1.318931,0.08929 2.017188,0.256716 0.709336,0.167424 1.318924,0.468786 1.83984,0.881763 0.520925,0.412978 0.798007,0.971056 0.820172,1.65191 0,0.6808551 -0.243834,1.2389341 -0.742587,1.6630721 -0.498752,0.42414 -1.097263,0.7255 -1.784427,0.9040859 -0.698255,0.178585 -1.352177,0.267877 -1.972847,0.267877 -0.665,0 -1.341087,-0.08929 -2.050422,-0.256716 C 45.205854,7.9471973 44.607347,7.6569963 44.097513,7.2328583 43.598766,6.8087193 43.332755,6.2506403 43.321676,5.5474622 Z"
       class="fil1 str1"
       inkscape:connector-curvature="0" />
    <path
       style="fill:#131516;fill-rule:evenodd;stroke:#131516;stroke-width:0.03336721;image-rendering:optimizeQuality;shape-rendering:geometricPrecision;text-rendering:geometricPrecision"
       id="g6"
       d="m 46.092527,-11.74396 c 0.04431,0.825955 0.288168,1.517972 0.731501,2.0537292 0.44334,0.535754 0.975341,0.80363 1.59601,0.80363 0.476585,-0.05581 0.809089,-0.212068 0.997505,-0.479947 0.177338,-0.267875 0.266005,-0.7366622 0.266005,-1.3951952 -0.06647,-0.848278 -0.310341,-1.540296 -0.753667,-2.064888 -0.443342,-0.524593 -0.975347,-0.792472 -1.618183,-0.792472 -0.443333,0.07814 -0.753672,0.234395 -0.94209,0.49111 -0.188414,0.245555 -0.277081,0.71434 -0.277081,1.384033 z m -2.770851,0.468785 c 0,-0.680854 0.24383,-1.22777 0.742586,-1.640748 0.498756,-0.424139 1.097255,-0.714341 1.795513,-0.892926 0.687173,-0.167423 1.330008,-0.256715 1.91742,-0.256715 0.642843,0 1.318931,0.08929 2.017188,0.256715 0.709336,0.167424 1.318924,0.468787 1.83984,0.881764 0.520925,0.412978 0.798007,0.971056 0.820172,1.65191 0,0.680856 -0.243834,1.238935 -0.742587,1.6630742 -0.498752,0.42414 -1.097263,0.7255 -1.784427,0.904086 -0.698255,0.178585 -1.352177,0.267877 -1.972847,0.267877 -0.665,0 -1.341087,-0.08929 -2.050422,-0.256716 -0.698258,-0.178584 -1.296765,-0.468785 -1.806599,-0.892923 -0.498747,-0.4241402 -0.764758,-0.9822192 -0.775837,-1.6853982 z"
       class="fil1 str1"
       inkscape:connector-curvature="0" />
  </g>
  <g
     id="notes_between_lines"
     transform="translate(0.39403125,14.082248)">
    <path
       style="fill:#131516;fill-rule:evenodd;stroke:#131516;stroke-width:0.03336721;image-rendering:optimizeQuality;shape-rendering:geometricPrecision;text-rendering:geometricPrecision"
       id="e5"
       d="m 38.138771,13.373169 c 0.04431,0.825954 0.288168,1.517971 0.731501,2.053727 0.44334,0.535754 0.975339,0.80363 1.59601,0.80363 0.476584,-0.05581 0.809088,-0.212068 0.997504,-0.479947 0.177338,-0.267875 0.266006,-0.736661 0.266006,-1.395194 -0.06647,-0.848277 -0.310342,-1.540295 -0.753667,-2.064887 -0.443342,-0.524593 -0.975348,-0.792471 -1.618183,-0.792471 -0.443333,0.07814 -0.753673,0.234394 -0.94209,0.491109 -0.188415,0.245555 -0.277081,0.71434 -0.277081,1.384033 z m -2.770851,0.468785 c 0,-0.680854 0.24383,-1.22777 0.742586,-1.640748 0.498756,-0.424139 1.097255,-0.71434 1.795513,-0.892925 0.687173,-0.167423 1.330008,-0.256715 1.91742,-0.256715 0.642843,0 1.318929,0.08929 2.017188,0.256715 0.709336,0.167424 1.318924,0.468786 1.83984,0.881763 0.520925,0.412978 0.798007,0.971056 0.820171,1.65191 0,0.680855 -0.243833,1.238934 -0.742586,1.663072 -0.498752,0.42414 -1.097263,0.7255 -1.784427,0.904086 -0.698255,0.178585 -1.352177,0.267877 -1.972848,0.267877 -0.665,0 -1.341087,-0.08929 -2.050422,-0.256716 -0.698259,-0.178584 -1.296765,-0.468785 -1.806598,-0.892924 -0.498748,-0.424138 -0.764758,-0.982217 -0.775838,-1.685395 z"
       class="fil1 str1"
       inkscape:connector-curvature="0" />
    <path
       style="fill:#131516;fill-rule:evenodd;stroke:#131516;stroke-width:0.03336721;image-rendering:optimizeQuality;shape-rendering:geometricPrecision;text-rendering:geometricPrecision"
       id="c5"
       d="m 38.138771,18.980712 c 0.04431,0.825955 0.288168,1.517972 0.731501,2.053728 0.44334,0.535753 0.97534,0.80363 1.59601,0.80363 0.476584,-0.05581 0.809088,-0.212069 0.997505,-0.479947 0.177338,-0.267876 0.266005,-0.736662 0.266005,-1.395195 -0.06647,-0.848277 -0.310341,-1.540294 -0.753667,-2.064886 -0.443342,-0.524593 -0.975347,-0.792471 -1.618183,-0.792471 -0.443333,0.07814 -0.753672,0.234394 -0.94209,0.491108 -0.188414,0.245555 -0.277081,0.71434 -0.277081,1.384033 z m -2.770851,0.468785 c 0,-0.680854 0.24383,-1.22777 0.742586,-1.640747 0.498756,-0.424139 1.097255,-0.71434 1.795512,-0.892925 0.687173,-0.167424 1.330009,-0.256716 1.917421,-0.256716 0.642843,0 1.31893,0.08929 2.017188,0.256716 0.709336,0.167423 1.318924,0.468786 1.83984,0.881762 0.520925,0.412978 0.798007,0.971056 0.820171,1.65191 0,0.680856 -0.243833,1.238935 -0.742586,1.663073 -0.498752,0.424139 -1.097263,0.7255 -1.784427,0.904086 -0.698255,0.178584 -1.352177,0.267876 -1.972847,0.267876 -0.665,0 -1.341087,-0.08929 -2.050422,-0.256715 -0.698258,-0.178585 -1.296765,-0.468785 -1.806599,-0.892924 -0.498748,-0.424139 -0.764758,-0.982218 -0.775837,-1.685396 z"
       class="fil1 str1"
       inkscape:connector-curvature="0" />
    <path
       style="fill:#131516;fill-rule:evenodd;stroke:#131516;stroke-width:0.03336721;image-rendering:optimizeQuality;shape-rendering:geometricPrecision;text-rendering:geometricPrecision"
       id="a4"
       d="m 38.138771,24.588258 c 0.04431,0.825954 0.288168,1.517971 0.731501,2.053727 0.44334,0.535754 0.97534,0.80363 1.59601,0.80363 0.476584,-0.05581 0.809088,-0.212068 0.997505,-0.479947 0.177338,-0.267875 0.266005,-0.736661 0.266005,-1.395194 -0.06647,-0.848277 -0.310341,-1.540295 -0.753667,-2.064887 -0.443342,-0.524593 -0.975347,-0.792471 -1.618183,-0.792471 -0.443333,0.07814 -0.753672,0.234394 -0.94209,0.491109 -0.188414,0.245555 -0.277081,0.71434 -0.277081,1.384033 z m -2.770851,0.468785 c 0,-0.680854 0.24383,-1.22777 0.742586,-1.640748 0.498756,-0.424139 1.097255,-0.71434 1.795512,-0.892925 0.687173,-0.167423 1.330009,-0.256715 1.917421,-0.256715 0.642843,0 1.31893,0.08929 2.017188,0.256715 0.709336,0.167424 1.318924,0.468786 1.83984,0.881763 0.520925,0.412978 0.798007,0.971056 0.820171,1.65191 0,0.680855 -0.243833,1.238934 -0.742586,1.663072 -0.498752,0.42414 -1.097263,0.7255 -1.784427,0.904086 -0.698255,0.178585 -1.352177,0.267877 -1.972847,0.267877 -0.665,0 -1.341087,-0.08929 -2.050422,-0.256716 C 37.252098,27.456778 36.653591,27.166577 36.143757,26.742439 35.645009,26.3183 35.378999,25.760221 35.36792,25.057043 Z"
       class="fil1 str1"
       inkscape:connector-curvature="0" />
    <path
       style="fill:#131516;fill-rule:evenodd;stroke:#131516;stroke-width:0.03336721;image-rendering:optimizeQuality;shape-rendering:geometricPrecision;text-rendering:geometricPrecision"
       id="f4"
       d="m 38.138771,30.1958 c 0.04431,0.825954 0.288168,1.517971 0.731501,2.053727 0.44334,0.535754 0.97534,0.80363 1.59601,0.80363 0.476584,-0.05581 0.809088,-0.212068 0.997505,-0.479947 0.177338,-0.267875 0.266005,-0.736661 0.266005,-1.395194 -0.06647,-0.848277 -0.310341,-1.540295 -0.753667,-2.064887 -0.443342,-0.524593 -0.975347,-0.792471 -1.618183,-0.792471 -0.443333,0.07814 -0.753672,0.234394 -0.94209,0.491109 -0.188414,0.245555 -0.277081,0.71434 -0.277081,1.384033 z m -2.770851,0.468785 c 0,-0.680854 0.24383,-1.22777 0.742586,-1.640748 0.498756,-0.424139 1.097255,-0.71434 1.795512,-0.892925 0.687173,-0.167423 1.330009,-0.256715 1.917421,-0.256715 0.642843,0 1.31893,0.08929 2.017188,0.256715 0.709336,0.167424 1.318924,0.468786 1.83984,0.881763 0.520925,0.412978 0.798007,0.971056 0.820171,1.65191 0,0.680855 -0.243833,1.238934 -0.742586,1.663072 -0.498752,0.42414 -1.097263,0.7255 -1.784427,0.904086 -0.698255,0.178585 -1.352177,0.267877 -1.972847,0.267877 -0.665,0 -1.341087,-0.08929 -2.050422,-0.256716 -0.698258,-0.178584 -1.296765,-0.468785 -1.806599,-0.892923 -0.498748,-0.424139 -0.764758,-0.982218 -0.775837,-1.685396 z"
       class="fil1 str1"
       inkscape:connector-curvature="0" />
    <path
       style="fill:#131516;fill-rule:evenodd;stroke:#131516;stroke-width:0.03336721;image-rendering:optimizeQuality;shape-rendering:geometricPrecision;text-rendering:geometricPrecision"
       id="d4"
       d="m 38.138771,35.803344 c 0.04431,0.825954 0.288168,1.517971 0.731501,2.053727 0.44334,0.535754 0.97534,0.80363 1.59601,0.80363 0.476584,-0.05581 0.809088,-0.212068 0.997505,-0.479947 0.177338,-0.267875 0.266005,-0.736661 0.266005,-1.395194 -0.06647,-0.848277 -0.310341,-1.540295 -0.753667,-2.064887 -0.443342,-0.524593 -0.975347,-0.792471 -1.618183,-0.792471 -0.443333,0.07814 -0.753672,0.234394 -0.94209,0.491109 -0.188414,0.245555 -0.277081,0.71434 -0.277081,1.384033 z m -2.770851,0.468785 c 0,-0.680854 0.24383,-1.22777 0.742586,-1.640748 0.498756,-0.424139 1.097255,-0.71434 1.795512,-0.892925 0.687173,-0.167423 1.330009,-0.256715 1.917421,-0.256715 0.642843,0 1.31893,0.08929 2.017188,0.256715 0.709336,0.167424 1.318924,0.468786 1.83984,0.881763 0.520925,0.412978 0.798007,0.971056 0.820171,1.65191 0,0.680855 -0.243833,1.238934 -0.742586,1.663072 -0.498752,0.42414 -1.097263,0.7255 -1.784427,0.904086 -0.698255,0.178585 -1.352177,0.267877 -1.972847,0.267877 -0.665,0 -1.341087,-0.08929 -2.050422,-0.256716 -0.698258,-0.178584 -1.296765,-0.468785 -1.806599,-0.892923 -0.498748,-0.424139 -0.764758,-0.982218 -0.775837,-1.685396 z"
       class="fil1 str1"
       inkscape:connector-curvature="0" />
    <path
       style="fill:#131516;fill-rule:evenodd;stroke:#131516;stroke-width:0.03336721;image-rendering:optimizeQuality;shape-rendering:geometricPrecision;text-rendering:geometricPrecision"
       id="g5"
       d="m 38.138771,7.7656233 c 0.04431,0.8259545 0.288168,1.5179715 0.731501,2.0537275 0.44334,0.5357542 0.97534,0.8036302 1.59601,0.8036302 0.476584,-0.05581 0.809088,-0.212068 0.997505,-0.479947 0.177338,-0.2678752 0.266005,-0.7366612 0.266005,-1.3951942 -0.06647,-0.8482775 -0.310341,-1.5402955 -0.753667,-2.0648875 -0.443342,-0.524593 -0.975347,-0.792471 -1.618183,-0.792471 -0.443333,0.07814 -0.753672,0.234394 -0.94209,0.491109 -0.188414,0.245555 -0.277081,0.71434 -0.277081,1.384033 z M 35.36792,8.2344084 c 0,-0.6808541 0.24383,-1.2277701 0.742586,-1.6407481 0.498756,-0.424139 1.097255,-0.71434 1.795512,-0.8929251 0.687173,-0.167423 1.330009,-0.256715 1.917421,-0.256715 0.642843,0 1.31893,0.08929 2.017188,0.256715 0.709336,0.1674241 1.318924,0.4687861 1.83984,0.8817631 0.520925,0.412978 0.798007,0.971056 0.820171,1.6519101 0,0.6808554 -0.243833,1.2389344 -0.742586,1.6630724 -0.498752,0.4241402 -1.097263,0.7255002 -1.784427,0.9040862 -0.698255,0.178585 -1.352177,0.267877 -1.972847,0.267877 -0.665,0 -1.341087,-0.08929 -2.050422,-0.256716 C 37.252098,10.634144 36.653591,10.343943 36.143757,9.9198048 35.645009,9.4956658 35.378999,8.9375868 35.36792,8.2344084 Z"
       class="fil1 str1"
       inkscape:connector-curvature="0" />
    <path
       style="fill:#131516;fill-rule:evenodd;stroke:#131516;stroke-width:0.03336721;image-rendering:optimizeQuality;shape-rendering:geometricPrecision;text-rendering:geometricPrecision"
       id="g3"
       d="m 38.138772,46.940551 c 0.04431,0.825954 0.288168,1.517972 0.731501,2.053728 0.44334,0.535754 0.975339,0.80363 1.59601,0.80363 0.476584,-0.05581 0.809088,-0.212068 0.997504,-0.479947 0.177338,-0.267875 0.266006,-0.736661 0.266006,-1.395195 -0.06647,-0.848277 -0.310342,-1.540295 -0.753667,-2.064887 -0.443343,-0.524593 -0.975348,-0.792471 -1.618184,-0.792471 -0.443333,0.07814 -0.753673,0.234394 -0.94209,0.491109 -0.188415,0.245555 -0.277081,0.71434 -0.277081,1.384033 z m -2.770851,0.468785 c 0,-0.680854 0.24383,-1.22777 0.742586,-1.640748 0.498756,-0.424139 1.097255,-0.71434 1.795512,-0.892925 0.687173,-0.167423 1.330009,-0.256715 1.917421,-0.256715 0.642843,0 1.318929,0.08929 2.017188,0.256715 0.709336,0.167424 1.318924,0.468786 1.83984,0.881763 0.520925,0.412978 0.798007,0.971056 0.820171,1.65191 0,0.680855 -0.243833,1.238935 -0.742586,1.663073 -0.498752,0.42414 -1.097263,0.7255 -1.784427,0.904086 -0.698256,0.178585 -1.352177,0.267877 -1.972848,0.267877 -0.665,0 -1.341087,-0.08929 -2.050422,-0.256716 -0.698259,-0.178584 -1.296765,-0.468785 -1.806599,-0.892924 -0.498748,-0.424138 -0.764758,-0.982218 -0.775837,-1.685396 z"
       class="fil1 str1"
       inkscape:connector-curvature="0" />
    <path
       style="fill:#131516;fill-rule:evenodd;stroke:#131516;stroke-width:0.03336721;image-rendering:optimizeQuality;shape-rendering:geometricPrecision;text-rendering:geometricPrecision"
       id="e3"
       d="m 38.138771,52.548095 c 0.04431,0.825955 0.288168,1.517972 0.731501,2.053728 0.44334,0.535753 0.97534,0.80363 1.59601,0.80363 0.476584,-0.05581 0.809088,-0.212069 0.997505,-0.479947 0.177338,-0.267876 0.266005,-0.736662 0.266005,-1.395195 -0.06647,-0.848277 -0.310341,-1.540294 -0.753667,-2.064886 -0.443342,-0.524593 -0.975347,-0.792471 -1.618183,-0.792471 -0.443333,0.07814 -0.753672,0.234394 -0.94209,0.491108 -0.188414,0.245555 -0.277081,0.71434 -0.277081,1.384033 z M 35.36792,53.01688 c 0,-0.680854 0.24383,-1.22777 0.742586,-1.640747 0.498756,-0.424139 1.097255,-0.71434 1.795512,-0.892925 0.687173,-0.167424 1.330009,-0.256716 1.917421,-0.256716 0.642843,0 1.31893,0.08929 2.017188,0.256716 0.709336,0.167423 1.318924,0.468786 1.83984,0.881762 0.520925,0.412978 0.798007,0.971056 0.820171,1.65191 0,0.680856 -0.243833,1.238935 -0.742586,1.663073 -0.498752,0.424139 -1.097263,0.7255 -1.784427,0.904086 -0.698255,0.178584 -1.352177,0.267876 -1.972847,0.267876 -0.665,0 -1.341087,-0.08929 -2.050422,-0.256715 -0.698258,-0.178585 -1.296765,-0.468785 -1.806599,-0.892924 -0.498748,-0.424139 -0.764758,-0.982218 -0.775837,-1.685396 z"
       class="fil1 str1"
       inkscape:connector-curvature="0" />
    <path
       style="fill:#131516;fill-rule:evenodd;stroke:#131516;stroke-width:0.03336721;image-rendering:optimizeQuality;shape-rendering:geometricPrecision;text-rendering:geometricPrecision"
       id="c3"
       d="m 38.138771,58.155641 c 0.04431,0.825954 0.288168,1.517971 0.731501,2.053727 0.44334,0.535754 0.97534,0.80363 1.59601,0.80363 0.476584,-0.05581 0.809088,-0.212068 0.997505,-0.479947 0.177338,-0.267875 0.266005,-0.736661 0.266005,-1.395194 -0.06647,-0.848277 -0.310341,-1.540295 -0.753667,-2.064887 -0.443342,-0.524593 -0.975347,-0.792471 -1.618183,-0.792471 -0.443333,0.07814 -0.753672,0.234394 -0.94209,0.491109 -0.188414,0.245555 -0.277081,0.71434 -0.277081,1.384033 z m -2.770851,0.468785 c 0,-0.680854 0.24383,-1.22777 0.742586,-1.640748 0.498756,-0.424139 1.097255,-0.71434 1.795512,-0.892925 0.687173,-0.167423 1.330009,-0.256715 1.917421,-0.256715 0.642843,0 1.31893,0.08929 2.017188,0.256715 0.709336,0.167424 1.318924,0.468786 1.83984,0.881763 0.520925,0.412978 0.798007,0.971056 0.820171,1.65191 0,0.680855 -0.243833,1.238934 -0.742586,1.663072 -0.498752,0.42414 -1.097263,0.7255 -1.784427,0.904086 -0.698255,0.178585 -1.352177,0.267877 -1.972847,0.267877 -0.665,0 -1.341087,-0.08929 -2.050422,-0.256716 -0.698258,-0.178584 -1.296765,-0.468785 -1.806599,-0.892923 -0.498748,-0.424139 -0.764758,-0.982218 -0.775837,-1.685396 z"
       class="fil1 str1"
       inkscape:connector-curvature="0" />
    <path
       inkscape:label="#b3"
       style="fill:#131516;fill-rule:evenodd;stroke:#131516;stroke-width:0.03336721;image-rendering:optimizeQuality;shape-rendering:geometricPrecision;text-rendering:geometricPrecision"
       id="b3"
       d="m 38.138771,41.333005 c 0.04431,0.825955 0.288168,1.517972 0.731501,2.053728 0.44334,0.535754 0.97534,0.80363 1.59601,0.80363 0.476584,-0.05581 0.809088,-0.212068 0.997505,-0.479947 0.177338,-0.267875 0.266005,-0.736661 0.266005,-1.395194 -0.06647,-0.848278 -0.310341,-1.540296 -0.753667,-2.064888 -0.443342,-0.524593 -0.975347,-0.792471 -1.618183,-0.792471 -0.443333,0.07814 -0.753672,0.234394 -0.94209,0.491109 -0.188414,0.245555 -0.277081,0.71434 -0.277081,1.384033 z M 35.36792,41.80179 c 0,-0.680854 0.24383,-1.22777 0.742586,-1.640748 0.498756,-0.424139 1.097255,-0.71434 1.795512,-0.892925 0.687173,-0.167423 1.330009,-0.256715 1.917421,-0.256715 0.642843,0 1.31893,0.08929 2.017188,0.256715 0.709336,0.167424 1.318924,0.468786 1.83984,0.881763 0.520925,0.412978 0.798007,0.971056 0.820171,1.65191 0,0.680856 -0.243833,1.238935 -0.742586,1.663073 -0.498752,0.42414 -1.097263,0.7255 -1.784427,0.904086 -0.698255,0.178585 -1.352177,0.267877 -1.972847,0.267877 -0.665,0 -1.341087,-0.08929 -2.050422,-0.256716 -0.698258,-0.178584 -1.296765,-0.468785 -1.806599,-0.892923 -0.498748,-0.424139 -0.764758,-0.982218 -0.775837,-1.685397 z"
       class="fil1 str1"
       inkscape:connector-curvature="0" />
    <path
       style="fill:#131516;fill-rule:evenodd;stroke:#131516;stroke-width:0.03336721;image-rendering:optimizeQuality;shape-rendering:geometricPrecision;text-rendering:geometricPrecision"
       id="f6"
       d="m 37.856448,-8.7844198 c 0.04431,0.825954 0.288168,1.517972 0.731501,2.053728 0.44334,0.535754 0.975339,0.80363 1.59601,0.80363 0.476584,-0.05581 0.809088,-0.212068 0.997504,-0.479947 0.177338,-0.267875 0.266006,-0.736661 0.266006,-1.395195 -0.06647,-0.848277 -0.310342,-1.540295 -0.753667,-2.064887 -0.443343,-0.5245932 -0.975348,-0.7924712 -1.618184,-0.7924712 -0.443333,0.07814 -0.753673,0.234394 -0.94209,0.491109 -0.188415,0.2455552 -0.277081,0.7143402 -0.277081,1.3840332 z m -2.770851,0.468785 c 0,-0.680854 0.24383,-1.22777 0.742586,-1.640748 0.498756,-0.4241392 1.097255,-0.7143402 1.795512,-0.8929252 0.687173,-0.167423 1.330009,-0.256715 1.917421,-0.256715 0.642843,0 1.318929,0.08929 2.017188,0.256715 0.709336,0.167424 1.318924,0.468786 1.83984,0.8817632 0.520925,0.412978 0.798007,0.971056 0.820171,1.65191 0,0.680855 -0.243833,1.238935 -0.742586,1.663073 -0.498752,0.42414 -1.097263,0.7255 -1.784427,0.904086 -0.698256,0.178585 -1.352177,0.267877 -1.972848,0.267877 -0.665,0 -1.341087,-0.08929 -2.050422,-0.256716 -0.698259,-0.178584 -1.296765,-0.468785 -1.806599,-0.892924 -0.498748,-0.424138 -0.764758,-0.982218 -0.775837,-1.685396 z"
       class="fil1 str1"
       inkscape:connector-curvature="0" />
    <path
       style="fill:#131516;fill-rule:evenodd;stroke:#131516;stroke-width:0.03336721;image-rendering:optimizeQuality;shape-rendering:geometricPrecision;text-rendering:geometricPrecision"
       id="d6"
       d="m 37.856447,-3.1768758 c 0.04431,0.825955 0.288168,1.517972 0.731501,2.053728 0.44334,0.53575304 0.97534,0.80363004 1.59601,0.80363004 0.476584,-0.05581 0.809088,-0.212069 0.997505,-0.479947 0.177338,-0.26787604 0.266005,-0.73666204 0.266005,-1.39519504 -0.06647,-0.848277 -0.310341,-1.540294 -0.753667,-2.064886 -0.443342,-0.524593 -0.975347,-0.792471 -1.618183,-0.792471 -0.443333,0.07814 -0.753672,0.234394 -0.94209,0.491108 -0.188414,0.245555 -0.277081,0.71434 -0.277081,1.384033 z m -2.770851,0.468785 c 0,-0.680854 0.24383,-1.22777 0.742586,-1.640747 0.498756,-0.424139 1.097255,-0.71434 1.795512,-0.892925 0.687173,-0.167424 1.330009,-0.256716 1.917421,-0.256716 0.642843,0 1.31893,0.08929 2.017188,0.256716 0.709336,0.167423 1.318924,0.468786 1.83984,0.881762 0.520925,0.412978 0.798007,0.971056 0.820171,1.65191 0,0.680856 -0.243833,1.238935 -0.742586,1.663073 -0.498752,0.42413904 -1.097263,0.72550004 -1.784427,0.90408604 -0.698255,0.178584 -1.352177,0.267876 -1.972847,0.267876 -0.665,0 -1.341087,-0.08929 -2.050422,-0.256715 -0.698258,-0.178585 -1.296765,-0.468785 -1.806599,-0.89292404 -0.498748,-0.424139 -0.764758,-0.982218 -0.775837,-1.685396 z"
       class="fil1 str1"
       inkscape:connector-curvature="0" />
    <path
       style="fill:#131516;fill-rule:evenodd;stroke:#131516;stroke-width:0.03336721;image-rendering:optimizeQuality;shape-rendering:geometricPrecision;text-rendering:geometricPrecision"
       id="b5"
       d="m 37.856447,2.4306702 c 0.04431,0.825955 0.288168,1.517972 0.731501,2.053728 0.44334,0.535754 0.97534,0.80363 1.59601,0.80363 0.476584,-0.05581 0.809088,-0.212068 0.997505,-0.479947 0.177338,-0.267875 0.266005,-0.736661 0.266005,-1.395194 -0.06647,-0.848278 -0.310341,-1.540296 -0.753667,-2.064888 -0.443342,-0.52459296 -0.975347,-0.79247096 -1.618183,-0.79247096 -0.443333,0.07814 -0.753672,0.234394 -0.94209,0.49110896 -0.188414,0.245555 -0.277081,0.71434 -0.277081,1.384033 z m -2.770851,0.468785 c 0,-0.680854 0.24383,-1.22777 0.742586,-1.640748 0.498756,-0.42413896 1.097255,-0.71433996 1.795512,-0.89292496 0.687173,-0.167423 1.330009,-0.256715 1.917421,-0.256715 0.642843,0 1.31893,0.08929 2.017188,0.256715 0.709336,0.167424 1.318924,0.468786 1.83984,0.88176296 0.520925,0.412978 0.798007,0.971056 0.820171,1.65191 0,0.680856 -0.243833,1.238935 -0.742586,1.663073 -0.498752,0.42414 -1.097263,0.7255 -1.784427,0.904086 -0.698255,0.178585 -1.352177,0.267877 -1.972847,0.267877 -0.665,0 -1.341087,-0.08929 -2.050422,-0.256716 -0.698258,-0.178584 -1.296765,-0.468785 -1.806599,-0.892923 -0.498748,-0.424139 -0.764758,-0.982218 -0.775837,-1.685397 z"
       class="fil1 str1"
       inkscape:connector-curvature="0" />
  </g>
  <path
     style="fill:none;fill-opacity:1;fill-rule:evenodd;stroke:#535353;stroke-width:1.32661653;stroke-linejoin:bevel;stroke-miterlimit:4;stroke-dasharray:none;stroke-opacity:0.88429751;image-rendering:optimizeQuality;shape-rendering:geometricPrecision;text-rendering:geometricPrecision"
     id="end_of_staff"
     d="m 63.817141,24.593199 0,23.526915 m 0,-23.526915 z"
     class="fil2 str2"
     inkscape:connector-curvature="0" />
  <g
     id="ledgers"
     transform="translate(-20.799663,14.082248)">
    <path
       inkscape:connector-curvature="0"
       id="ledger_up_4"
       d="m 54.678066,-11.175671 12.438154,-0.0089"
       style="fill:none;fill-rule:evenodd;stroke:#000000;stroke-width:1.13015771px;stroke-linecap:butt;stroke-linejoin:miter;stroke-opacity:1" />
    <path
       inkscape:connector-curvature="0"
       id="ledger_up_3"
       d="m 54.678065,-5.5114688 12.438156,-0.00894"
       style="fill:none;fill-rule:evenodd;stroke:#000000;stroke-width:1.13015771px;stroke-linecap:butt;stroke-linejoin:miter;stroke-opacity:1" />
    <path
       inkscape:connector-curvature="0"
       id="ledger_up_2"
       d="M 54.678065,0.15273341 67.11622,0.14379241"
       style="fill:none;fill-rule:evenodd;stroke:#000000;stroke-width:1.13015771px;stroke-linecap:butt;stroke-linejoin:miter;stroke-opacity:1" />
    <path
       inkscape:label="#ledger_up_1"
       inkscape:connector-curvature="0"
       id="ledger_up_1"
       d="M 54.678066,5.8169357 67.11622,5.8079972"
       style="fill:none;fill-rule:evenodd;stroke:#000000;stroke-width:1.13015771px;stroke-linecap:butt;stroke-linejoin:miter;stroke-opacity:1" />
    <path
       inkscape:connector-curvature="0"
       id="ledger_down_1"
       d="M 54.857405,38.94691 67.29556,38.93801"
       style="fill:none;fill-rule:evenodd;stroke:#000000;stroke-width:1.13015771px;stroke-linecap:butt;stroke-linejoin:miter;stroke-opacity:1" />
    <path
       inkscape:connector-curvature="0"
       id="ledger_down_2"
       d="m 54.857405,44.611112 12.438154,-0.0089"
       style="fill:none;fill-rule:evenodd;stroke:#000000;stroke-width:1.13015771px;stroke-linecap:butt;stroke-linejoin:miter;stroke-opacity:1" />
    <path
       inkscape:connector-curvature="0"
       id="ledger_down_3"
       d="m 54.857405,50.275316 12.438154,-0.0089"
       style="fill:none;fill-rule:evenodd;stroke:#000000;stroke-width:1.13015771px;stroke-linecap:butt;stroke-linejoin:miter;stroke-opacity:1" />
    <path
       inkscape:connector-curvature="0"
       id="ledger_down_4"
       d="m 54.857405,55.967756 12.438154,-0.0089"
       style="fill:none;fill-rule:evenodd;stroke:#000000;stroke-width:1.13015771px;stroke-linecap:butt;stroke-linejoin:miter;stroke-opacity:1" />
    <path
       inkscape:connector-curvature="0"
       id="ledger_down_5"
       d="m 54.857404,61.631959 12.438156,-0.0089"
       style="fill:none;fill-rule:evenodd;stroke:#000000;stroke-width:1.13015771px;stroke-linecap:butt;stroke-linejoin:miter;stroke-opacity:1" />
  </g>
</svg>
