<?xml version="1.0" encoding="UTF-8" standalone="no"?>
<svg
   xmlns:dc="http://purl.org/dc/elements/1.1/"
   xmlns:cc="http://creativecommons.org/ns#"
   xmlns:rdf="http://www.w3.org/1999/02/22-rdf-syntax-ns#"
   xmlns:svg="http://www.w3.org/2000/svg"
   xmlns="http://www.w3.org/2000/svg"
   version="1.1"
   id="staff_short"
   viewBox="0 0 356.69907 43.381763"
   height="12.243298mm"
   width="100.6684mm">
  <defs
     id="defs5165" />
  <metadata
     id="metadata5168">
    <rdf:RDF>
      <cc:Work
         rdf:about="">
        <dc:format>image/svg+xml</dc:format>
        <dc:type
           rdf:resource="http://purl.org/dc/dcmitype/StillImage" />
        <dc:title></dc:title>
      </cc:Work>
    </rdf:RDF>
  </metadata>
  <g
     transform="translate(132.63525,-223.70082)"
     id="layer1">
    <g
       transform="translate(-125.62616,363.74572)"
       id="note_b4_flat"
       style="display:inline">
      <path
         style="fill:none;fill-rule:evenodd;stroke:#000000;stroke-width:1.29754543;stroke-linecap:square;stroke-linejoin:bevel;image-rendering:optimizeQuality;shape-rendering:geometricPrecision;text-rendering:geometricPrecision"
         id="path565"
         d="m 170.00667,-116.63834 0,18.638593 m 0,-18.638593 z"
         class="fil2 str0" />
      <path
         style="fill:#000000;fill-rule:evenodd;stroke:#000000;stroke-width:0.28025246;image-rendering:optimizeQuality;shape-rendering:geometricPrecision;text-rendering:geometricPrecision"
         id="path567"
         d="m 174.82944,-120.8914 c 0.7731,0 1.39655,0.18885 1.86959,0.56585 0.47341,0.37736 0.70993,0.87558 0.70993,1.49431 0,1.0112 -0.55238,1.9616 -1.65676,2.85229 -1.10438,0.89032 -2.28734,1.33567 -3.54928,1.33567 -0.7731,0 -1.39617,-0.1885 -1.86959,-0.56585 -0.47303,-0.377 -0.70955,-0.87523 -0.70955,-1.49432 0,-1.01084 0.552,-1.96159 1.65638,-2.85192 1.10438,-0.89069 2.28734,-1.33603 3.54928,-1.33603 l 0,0 z"
         class="fil1 str1" />
      <text
         xml:space="preserve"
         style="font-style:normal;font-variant:normal;font-weight:normal;font-stretch:normal;font-size:18.11989784px;line-height:125.99999905%;font-family:'Linux Biolinum';-inkscape-font-specification:Sans;letter-spacing:0px;word-spacing:0px;fill:#000000;fill-opacity:1;stroke:none;stroke-width:1px;stroke-linecap:butt;stroke-linejoin:miter;stroke-opacity:1"
         x="159.73798"
         y="-114.44733"
         id="text6803"><tspan
           id="tspan6805"
           x="159.73798"
           y="-114.44733">♭</tspan></text>
    </g>
    <g
       transform="translate(-123.55803,363.74572)"
       id="note_b"
       style="display:inline">
      <path
         style="fill:none;fill-rule:evenodd;stroke:#000000;stroke-width:1.29754543;stroke-linecap:square;stroke-linejoin:bevel;image-rendering:optimizeQuality;shape-rendering:geometricPrecision;text-rendering:geometricPrecision"
         id="path569"
         d="m 190.21867,-116.63834 0,18.638593 m 0,-18.638593 z"
         class="fil2 str0" />
      <path
         style="fill:#000000;fill-rule:evenodd;stroke:#000000;stroke-width:0.28025246;image-rendering:optimizeQuality;shape-rendering:geometricPrecision;text-rendering:geometricPrecision"
         id="path571"
         d="m 195.04144,-120.8914 c 0.77311,0 1.39618,0.18885 1.86959,0.56585 0.47304,0.37736 0.70993,0.87558 0.70993,1.49431 0,1.0112 -0.55237,1.9616 -1.65676,2.85229 -1.10438,0.89032 -2.28734,1.33567 -3.54927,1.33567 -0.77311,0 -1.39618,-0.1885 -1.86959,-0.56585 -0.47341,-0.377 -0.70993,-0.87523 -0.70993,-1.49432 0,-1.01084 0.55238,-1.96159 1.65676,-2.85192 1.10438,-0.89069 2.28734,-1.33603 3.54927,-1.33603 l 0,0 z"
         class="fil1 str1" />
    </g>
    <g
       transform="translate(-147.72531,364.3669)"
       id="note_f4"
       style="display:inline">
      <path
         style="fill:none;fill-rule:evenodd;stroke:#000000;stroke-width:1.29754543;stroke-linecap:square;stroke-linejoin:bevel;image-rendering:optimizeQuality;shape-rendering:geometricPrecision;text-rendering:geometricPrecision"
         id="path589"
         d="m 64.040027,-110.76971 0,-17.93285 m 0,17.93285 z"
         class="fil2 str0" />
      <path
         style="fill:#000000;fill-rule:evenodd;stroke:#000000;stroke-width:0.28025246;image-rendering:optimizeQuality;shape-rendering:geometricPrecision;text-rendering:geometricPrecision"
         id="path591"
         d="m 61.837897,-112.76499 c 0.7731,0 1.39617,0.1885 1.86959,0.56585 0.47303,0.377 0.70993,0.87521 0.70993,1.49432 0,1.01084 -0.55238,1.96159 -1.65676,2.85192 -1.10438,0.89069 -2.28734,1.33567 -3.54928,1.33567 -0.7731,0 -1.39617,-0.18849 -1.86959,-0.56585 -0.47341,-0.377 -0.70993,-0.87522 -0.70993,-1.49396 0,-1.01119 0.55238,-1.96195 1.65676,-2.85228 1.10438,-0.89033 2.28734,-1.33567 3.54928,-1.33567 l 0,0 z"
         class="fil1 str1" />
    </g>
    <g
       transform="translate(-139.62076,364.3669)"
       id="note_f4_sharp"
       style="display:inline">
      <path
         style="fill:none;fill-rule:evenodd;stroke:#000000;stroke-width:1.29754543;stroke-linecap:square;stroke-linejoin:bevel;image-rendering:optimizeQuality;shape-rendering:geometricPrecision;text-rendering:geometricPrecision"
         id="path593"
         d="m 85.979867,-110.76971 0,-17.93285 m 0,17.93285 z"
         class="fil2 str0" />
      <path
         style="fill:#000000;fill-rule:evenodd;stroke:#000000;stroke-width:0.28025246;image-rendering:optimizeQuality;shape-rendering:geometricPrecision;text-rendering:geometricPrecision"
         id="path595"
         d="m 83.777737,-112.76499 c 0.77348,0 1.39655,0.1885 1.86959,0.56585 0.47341,0.377 0.70993,0.87521 0.70993,1.49432 0,1.01084 -0.552,1.96159 -1.65638,2.85192 -1.10438,0.89069 -2.28772,1.33567 -3.54928,1.33567 -0.77348,0 -1.39655,-0.18849 -1.86959,-0.56585 -0.47341,-0.377 -0.70993,-0.87522 -0.70993,-1.49396 0,-1.01119 0.55201,-1.96195 1.65639,-2.85228 1.10438,-0.89033 2.28771,-1.33567 3.54927,-1.33567 l 0,0 z"
         class="fil1 str1" />
      <text
         xml:space="preserve"
         style="font-style:normal;font-variant:normal;font-weight:normal;font-stretch:normal;font-size:18.91550255px;line-height:125.99999905%;font-family:'Linux Biolinum';-inkscape-font-specification:Sans;letter-spacing:0px;word-spacing:0px;fill:#000000;fill-opacity:1;stroke:none;stroke-width:1px;stroke-linecap:butt;stroke-linejoin:miter;stroke-opacity:1"
         x="69.075348"
         y="-102.2691"
         id="text6719"><tspan
           id="tspan6721"
           x="69.075348"
           y="-102.2691">♯</tspan></text>
    </g>
    <g
       transform="translate(-138.62779,364.3669)"
       id="note_g4"
       style="display:inline">
      <path
         style="display:inline;fill:none;fill-rule:evenodd;stroke:#000000;stroke-width:1.29754543;stroke-linecap:square;stroke-linejoin:bevel;image-rendering:optimizeQuality;shape-rendering:geometricPrecision;text-rendering:geometricPrecision"
         id="path589-3"
         d="m 107.27292,-113.97698 0,-17.93286 m 0,17.93286 z"
         class="fil2 str0" />
      <path
         style="display:inline;fill:#000000;fill-rule:evenodd;stroke:#000000;stroke-width:0.28025246;image-rendering:optimizeQuality;shape-rendering:geometricPrecision;text-rendering:geometricPrecision"
         id="path591-8"
         d="m 105.07079,-115.97226 c 0.7731,0 1.39617,0.1885 1.86959,0.56585 0.47303,0.377 0.70993,0.87521 0.70993,1.49432 0,1.01084 -0.55238,1.96159 -1.65676,2.85192 -1.10438,0.89069 -2.28734,1.33567 -3.54928,1.33567 -0.7731,0 -1.39617,-0.18849 -1.86959,-0.56585 -0.47341,-0.377 -0.709933,-0.87522 -0.709933,-1.49396 0,-1.01119 0.552383,-1.96195 1.656763,-2.85228 1.10438,-0.89033 2.28734,-1.33567 3.54928,-1.33567 l 0,0 z"
         class="fil1 str1" />
    </g>
    <g
       transform="translate(-130.52324,364.3669)"
       id="note_g4_sharp"
       style="display:inline">
      <path
         style="display:inline;fill:none;fill-rule:evenodd;stroke:#000000;stroke-width:1.29754543;stroke-linecap:square;stroke-linejoin:bevel;image-rendering:optimizeQuality;shape-rendering:geometricPrecision;text-rendering:geometricPrecision"
         id="path593-1"
         d="m 129.21276,-113.97698 0,-17.93286 m 0,17.93286 z"
         class="fil2 str0" />
      <path
         style="display:inline;fill:#000000;fill-rule:evenodd;stroke:#000000;stroke-width:0.28025246;image-rendering:optimizeQuality;shape-rendering:geometricPrecision;text-rendering:geometricPrecision"
         id="path595-9"
         d="m 127.01063,-115.97226 c 0.77348,0 1.39655,0.1885 1.86959,0.56585 0.47341,0.377 0.70993,0.87521 0.70993,1.49432 0,1.01084 -0.552,1.96159 -1.65638,2.85192 -1.10438,0.89069 -2.28772,1.33567 -3.54928,1.33567 -0.77348,0 -1.39655,-0.18849 -1.86959,-0.56585 -0.47341,-0.377 -0.70993,-0.87522 -0.70993,-1.49396 0,-1.01119 0.55201,-1.96195 1.65639,-2.85228 1.10438,-0.89033 2.28771,-1.33567 3.54927,-1.33567 l 0,0 z"
         class="fil1 str1" />
      <text
         xml:space="preserve"
         style="font-style:normal;font-variant:normal;font-weight:normal;font-stretch:normal;font-size:18.91550255px;line-height:125.99999905%;font-family:'Linux Biolinum';-inkscape-font-specification:Sans;letter-spacing:0px;word-spacing:0px;display:inline;fill:#000000;fill-opacity:1;stroke:none;stroke-width:1px;stroke-linecap:butt;stroke-linejoin:miter;stroke-opacity:1"
         x="112.30824"
         y="-105.47637"
         id="text6719-8"><tspan
           id="tspan6721-9"
           x="112.30824"
           y="-105.47637">♯</tspan></text>
    </g>
    <g
       transform="translate(-130.37318,363.74572)"
       id="note_a4"
       style="display:inline">
      <path
         style="display:inline;fill:none;fill-rule:evenodd;stroke:#000000;stroke-width:1.29754543;stroke-linecap:square;stroke-linejoin:bevel;image-rendering:optimizeQuality;shape-rendering:geometricPrecision;text-rendering:geometricPrecision"
         id="path589-8"
         d="m 151.34871,-116.26664 0,-17.93285 m 0,17.93285 z"
         class="fil2 str0" />
      <path
         style="display:inline;fill:#000000;fill-rule:evenodd;stroke:#000000;stroke-width:0.28025246;image-rendering:optimizeQuality;shape-rendering:geometricPrecision;text-rendering:geometricPrecision"
         id="path591-4"
         d="m 149.14658,-118.26192 c 0.7731,0 1.39617,0.1885 1.86959,0.56585 0.47303,0.377 0.70993,0.87521 0.70993,1.49432 0,1.01084 -0.55238,1.96159 -1.65676,2.85192 -1.10438,0.89069 -2.28734,1.33567 -3.54928,1.33567 -0.7731,0 -1.39617,-0.18849 -1.86959,-0.56585 -0.47341,-0.377 -0.70993,-0.87522 -0.70993,-1.49396 0,-1.01119 0.55238,-1.96195 1.65676,-2.85228 1.10438,-0.89033 2.28734,-1.33567 3.54928,-1.33567 l 0,0 z"
         class="fil1 str1" />
    </g>
    <g
       transform="translate(-119.34068,363.74572)"
       id="note_c5"
       style="display:inline">
      <path
         style="display:inline;fill:none;fill-rule:evenodd;stroke:#000000;stroke-width:1.29754543;stroke-linecap:square;stroke-linejoin:bevel;image-rendering:optimizeQuality;shape-rendering:geometricPrecision;text-rendering:geometricPrecision"
         id="path565-3"
         d="m 208.28147,-119.59562 0,18.63859 m 0,-18.63859 z"
         class="fil2 str0" />
      <path
         style="display:inline;fill:#000000;fill-rule:evenodd;stroke:#000000;stroke-width:0.28025246;image-rendering:optimizeQuality;shape-rendering:geometricPrecision;text-rendering:geometricPrecision"
         id="path567-1"
         d="m 213.10424,-123.84868 c 0.7731,0 1.39655,0.18885 1.86959,0.56585 0.47341,0.37736 0.70993,0.87558 0.70993,1.49431 0,1.0112 -0.55238,1.9616 -1.65676,2.85229 -1.10438,0.89032 -2.28734,1.33567 -3.54928,1.33567 -0.7731,0 -1.39617,-0.1885 -1.86959,-0.56585 -0.47303,-0.377 -0.70955,-0.87523 -0.70955,-1.49432 0,-1.01084 0.552,-1.96159 1.65638,-2.85192 1.10438,-0.89069 2.28734,-1.33603 3.54928,-1.33603 l 0,0 z"
         class="fil1 str1" />
    </g>
    <g
       transform="translate(-111.13632,363.74572)"
       id="note_c5_sharp"
       style="display:inline">
      <path
         style="display:inline;fill:none;fill-rule:evenodd;stroke:#000000;stroke-width:1.29754543;stroke-linecap:square;stroke-linejoin:bevel;image-rendering:optimizeQuality;shape-rendering:geometricPrecision;text-rendering:geometricPrecision"
         id="path569-0"
         d="m 230.21071,-119.59562 0,18.63859 m 0,-18.63859 z"
         class="fil2 str0" />
      <path
         style="display:inline;fill:#000000;fill-rule:evenodd;stroke:#000000;stroke-width:0.28025246;image-rendering:optimizeQuality;shape-rendering:geometricPrecision;text-rendering:geometricPrecision"
         id="path571-9"
         d="m 235.03348,-123.84868 c 0.77311,0 1.39618,0.18885 1.86959,0.56585 0.47304,0.37736 0.70993,0.87558 0.70993,1.49431 0,1.0112 -0.55237,1.9616 -1.65676,2.85229 -1.10438,0.89032 -2.28734,1.33567 -3.54927,1.33567 -0.77311,0 -1.39618,-0.1885 -1.86959,-0.56585 -0.47341,-0.377 -0.70993,-0.87523 -0.70993,-1.49432 0,-1.01084 0.55238,-1.96159 1.65676,-2.85192 1.10438,-0.89069 2.28734,-1.33603 3.54927,-1.33603 l 0,0 z"
         class="fil1 str1" />
      <text
         xml:space="preserve"
         style="font-style:normal;font-variant:normal;font-weight:normal;font-stretch:normal;font-size:18.91550255px;line-height:125.99999905%;font-family:'Linux Biolinum';-inkscape-font-specification:Sans;letter-spacing:0px;word-spacing:0px;display:inline;fill:#000000;fill-opacity:1;stroke:none;stroke-width:1px;stroke-linecap:butt;stroke-linejoin:miter;stroke-opacity:1"
         x="220.11064"
         y="-112.67669"
         id="text6719-8-9"><tspan
           id="tspan6721-9-6"
           x="220.11064"
           y="-112.67669">♯</tspan></text>
    </g>
    <g
       transform="translate(-107.37081,363.96675)"
       id="note_d5"
       style="display:inline">
      <path
         style="display:inline;fill:none;fill-rule:evenodd;stroke:#000000;stroke-width:1.29754543;stroke-linecap:square;stroke-linejoin:bevel;image-rendering:optimizeQuality;shape-rendering:geometricPrecision;text-rendering:geometricPrecision"
         id="path565-3-8"
         d="m 248.72535,-122.45769 0,18.63859 m 0,-18.63859 z"
         class="fil2 str0" />
      <path
         style="display:inline;fill:#000000;fill-rule:evenodd;stroke:#000000;stroke-width:0.28025246;image-rendering:optimizeQuality;shape-rendering:geometricPrecision;text-rendering:geometricPrecision"
         id="path567-1-6"
         d="m 253.54812,-126.71075 c 0.7731,0 1.39655,0.18885 1.86959,0.56585 0.47341,0.37736 0.70993,0.87558 0.70993,1.49431 0,1.0112 -0.55238,1.9616 -1.65676,2.85229 -1.10438,0.89032 -2.28734,1.33567 -3.54928,1.33567 -0.7731,0 -1.39617,-0.1885 -1.86959,-0.56585 -0.47303,-0.377 -0.70955,-0.87523 -0.70955,-1.49432 0,-1.01084 0.552,-1.96159 1.65638,-2.85192 1.10438,-0.89069 2.28734,-1.33603 3.54928,-1.33603 l 0,0 z"
         class="fil1 str1" />
    </g>
    <g
       transform="translate(-101.5348,363.50485)"
       id="note_e5"
       style="display:inline">
      <path
         style="display:inline;fill:none;fill-rule:evenodd;stroke:#000000;stroke-width:1.29754543;stroke-linecap:square;stroke-linejoin:bevel;image-rendering:optimizeQuality;shape-rendering:geometricPrecision;text-rendering:geometricPrecision"
         id="path569-6"
         d="m 295.46814,-125.4239 0,18.6386 m 0,-18.6386 z"
         class="fil2 str0" />
      <path
         style="display:inline;fill:#000000;fill-rule:evenodd;stroke:#000000;stroke-width:0.28025246;image-rendering:optimizeQuality;shape-rendering:geometricPrecision;text-rendering:geometricPrecision"
         id="path571-91"
         d="m 300.29091,-129.67696 c 0.77311,0 1.39618,0.18885 1.86959,0.56585 0.47304,0.37736 0.70993,0.87558 0.70993,1.49431 0,1.0112 -0.55237,1.9616 -1.65676,2.85229 -1.10438,0.89032 -2.28734,1.33567 -3.54927,1.33567 -0.77311,0 -1.39618,-0.1885 -1.86959,-0.56585 -0.47341,-0.377 -0.70993,-0.87523 -0.70993,-1.49432 0,-1.01084 0.55238,-1.96159 1.65676,-2.85192 1.10438,-0.89069 2.28734,-1.33603 3.54927,-1.33603 l 0,0 z"
         class="fil1 str1" />
    </g>
    <g
       transform="translate(-103.60295,363.96675)"
       id="note_e5_flat"
       style="display:inline">
      <path
         style="display:inline;fill:none;fill-rule:evenodd;stroke:#000000;stroke-width:1.29754543;stroke-linecap:square;stroke-linejoin:bevel;image-rendering:optimizeQuality;shape-rendering:geometricPrecision;text-rendering:geometricPrecision"
         id="path565-6"
         d="m 275.25614,-125.4239 0,18.6386 m 0,-18.6386 z"
         class="fil2 str0" />
      <path
         style="display:inline;fill:#000000;fill-rule:evenodd;stroke:#000000;stroke-width:0.28025246;image-rendering:optimizeQuality;shape-rendering:geometricPrecision;text-rendering:geometricPrecision"
         id="path567-2"
         d="m 280.07891,-129.67696 c 0.7731,0 1.39655,0.18885 1.86959,0.56585 0.47341,0.37736 0.70993,0.87558 0.70993,1.49431 0,1.0112 -0.55238,1.9616 -1.65676,2.85229 -1.10438,0.89032 -2.28734,1.33567 -3.54928,1.33567 -0.7731,0 -1.39617,-0.1885 -1.86959,-0.56585 -0.47303,-0.377 -0.70955,-0.87523 -0.70955,-1.49432 0,-1.01084 0.552,-1.96159 1.65638,-2.85192 1.10438,-0.89069 2.28734,-1.33603 3.54928,-1.33603 l 0,0 z"
         class="fil1 str1" />
      <text
         xml:space="preserve"
         style="font-style:normal;font-variant:normal;font-weight:normal;font-stretch:normal;font-size:18.11989784px;line-height:125.99999905%;font-family:'Linux Biolinum';-inkscape-font-specification:Sans;letter-spacing:0px;word-spacing:0px;display:inline;fill:#000000;fill-opacity:1;stroke:none;stroke-width:1px;stroke-linecap:butt;stroke-linejoin:miter;stroke-opacity:1"
         x="264.98746"
         y="-123.23288"
         id="text6803-4"><tspan
           id="tspan6805-8"
           x="264.98746"
           y="-123.23288">♭</tspan></text>
    </g>
    <path
       class="fil1 str1"
       d="m -109.98036,252.18246 c 0,1.31301 -0.39445,2.46378 -1.18335,3.45267 -0.78852,0.98854 -1.75075,1.66374 -2.88672,2.02563 0.0162,0.30217 0.0241,0.74751 0.0241,1.33567 0,0.79968 -0.0395,1.69036 -0.11845,2.67134 -0.14213,1.46409 -0.65465,2.7091 -1.53831,3.73541 -0.88327,1.02595 -1.98765,1.53928 -3.31313,1.53928 -1.37211,0 -2.55094,-0.43779 -3.53687,-1.31301 -0.98593,-0.87522 -1.4789,-1.93929 -1.4789,-3.19222 0,-0.64895 0.26397,-1.2033 0.79266,-1.66374 0.52831,-0.46045 1.14724,-0.69068 1.85754,-0.69068 0.63059,0 1.16304,0.23023 1.59697,0.69068 0.43392,0.46045 0.65089,1.01479 0.65089,1.66374 0,0.58887 -0.21697,1.09429 -0.65089,1.51697 -0.43393,0.42233 -0.96638,0.63385 -1.59697,0.63385 -0.23689,0 -0.47341,-0.0453 -0.70993,-0.13562 0.75694,1.0263 1.78197,1.53928 3.07549,1.53928 1.07317,0 1.95683,-0.43384 2.65058,-1.30186 0.69414,-0.86803 1.09648,-1.91303 1.20703,-3.13539 0.0786,-0.95076 0.1177,-1.81051 0.1177,-2.58033 0,-0.12051 -0.004,-0.29785 -0.0113,-0.53203 -0.008,-0.23383 -0.0117,-0.41117 -0.0117,-0.53168 -0.53621,0.1054 -1.12018,0.15792 -1.75114,0.15792 -2.28772,0 -4.24003,-0.78457 -5.85692,-2.35406 -1.6169,-1.56986 -2.42535,-3.46382 -2.42535,-5.68226 0,-0.79968 0.11055,-1.59935 0.33166,-2.39938 0.22072,-0.80004 0.51665,-1.53964 0.88741,-2.21844 0.37076,-0.67917 0.79642,-1.37345 1.27735,-2.08282 0.48093,-0.70903 0.9897,-1.37309 1.52628,-1.99181 0.53659,-0.61874 1.08107,-1.27524 1.63307,-1.96915 -0.56817,-1.62994 -0.97841,-3.04474 -1.23072,-4.2448 -0.25269,-1.19969 -0.37903,-2.54651 -0.37903,-4.04046 0,-1.01156 0.16582,-1.99613 0.49747,-2.95445 0.33128,-0.95832 0.71783,-1.73172 1.15966,-2.32024 0.44183,-0.58852 0.84379,-1.06408 1.20666,-1.42633 0.36286,-0.36224 0.60728,-0.54319 0.73324,-0.54319 0.26811,0 0.70993,0.42988 1.32511,1.28999 0.61517,0.86012 1.19914,1.98462 1.75114,3.37317 0.55238,1.38856 0.82838,2.65623 0.82838,3.80305 0,1.55439 -0.36286,3.01056 -1.08859,4.3689 -0.72572,1.35798 -1.76693,2.86739 -3.12362,4.52754 0.64714,1.8713 1.18335,3.53145 1.60901,4.98044 1.79852,0.0151 3.27365,0.62269 4.42503,1.82237 1.15176,1.1997 1.72745,2.59184 1.72745,4.17609 l 0,0 z m -4.11745,4.5279 c 0.72573,-0.27195 1.33714,-0.7396 1.83424,-1.40402 0.49674,-0.66406 0.74528,-1.43352 0.74528,-2.30873 0,-1.04106 -0.36324,-1.98426 -1.08896,-2.82962 -0.72573,-0.84501 -1.67969,-1.35078 -2.86266,-1.51698 0.74114,2.89797 1.19876,5.58441 1.37212,8.05935 l 0,0 z m -3.83317,-1.65259 c -0.0948,0 -0.25644,-0.0529 -0.48545,-0.15865 -0.22862,-0.1054 -0.50462,-0.27555 -0.82762,-0.50937 -0.32338,-0.23383 -0.63097,-0.50938 -0.92314,-0.8263 -0.29179,-0.31692 -0.54034,-0.72808 -0.74565,-1.23351 -0.20493,-0.50541 -0.30759,-1.03746 -0.30759,-1.59612 0,-1.07127 0.36287,-2.03713 1.08859,-2.89725 0.72572,-0.86047 1.71204,-1.38855 2.95854,-1.58496 -0.31586,-1.13207 -0.75768,-2.5127 -1.3251,-4.14227 -0.80507,0.99573 -1.41648,1.76914 -1.83424,2.31988 -0.41814,0.55075 -0.90697,1.27164 -1.46725,2.16196 -0.5599,0.89069 -0.96224,1.75836 -1.20703,2.60335 -0.24442,0.84537 -0.36663,1.72059 -0.36663,2.62601 0,1.41842 0.68212,2.65228 2.04669,3.70125 1.3646,1.04897 2.87507,1.57345 4.53182,1.57345 0.67836,0 1.24615,-0.0457 1.70338,-0.13633 -0.17334,-2.58033 -0.64638,-5.36463 -1.41949,-8.35288 -0.97841,0.0604 -1.75151,0.35829 -2.3193,0.89428 -0.56779,0.536 -0.85169,1.15833 -0.85169,1.8677 0,0.5432 0.17748,1.06732 0.53245,1.57309 0.35496,0.50578 0.87199,0.9245 1.54997,1.25653 0.12634,0.12087 0.18951,0.24138 0.18951,0.36225 0,0.12051 -0.0515,0.23382 -0.15379,0.33923 -0.10266,0.10576 -0.22486,0.15864 -0.367,0.15864 l 0,0 z m 1.77483,-27.93471 c -1.15176,0.69391 -2.05121,1.61085 -2.69796,2.75012 -0.64676,1.13962 -0.97014,2.35801 -0.97014,3.65591 0,1.04142 0.37828,2.67889 1.1356,4.91245 1.10438,-1.4033 1.95645,-2.73105 2.55582,-3.98399 0.59938,-1.25257 0.89907,-2.57313 0.89907,-3.96132 0,-0.73961 -0.059,-1.32453 -0.17749,-1.75476 -0.11807,-0.42988 -0.36624,-0.96947 -0.7449,-1.61841 l 0,0 z"
       id="clef"
       style="display:inline;fill:#000000;fill-rule:evenodd;stroke:#000000;stroke-width:0.28025246;image-rendering:optimizeQuality;shape-rendering:geometricPrecision;text-rendering:geometricPrecision" />
    <g
       id="staff">
      <g
         id="g6986"
         transform="matrix(3.3785961,0,0,1,-192.49268,363.88033)">
        <path
           class="fil2 str2"
           d="m 17.716655,-129.17827 105.104015,0 m -105.104015,0 z"
           id="path501"
           style="fill:none;fill-rule:evenodd;stroke:#000000;stroke-width:1.29754543;stroke-linejoin:bevel;image-rendering:optimizeQuality;shape-rendering:geometricPrecision;text-rendering:geometricPrecision" />
        <path
           class="fil2 str2"
           d="m 17.716655,-123.53049 105.104015,0 m -105.104015,0 z"
           id="path503"
           style="fill:none;fill-rule:evenodd;stroke:#000000;stroke-width:1.29754543;stroke-linejoin:bevel;image-rendering:optimizeQuality;shape-rendering:geometricPrecision;text-rendering:geometricPrecision" />
        <path
           class="fil2 str2"
           d="m 17.716655,-117.88177 105.104015,0 m -105.104015,0 z"
           id="path505"
           style="fill:none;fill-rule:evenodd;stroke:#000000;stroke-width:1.29754543;stroke-linejoin:bevel;image-rendering:optimizeQuality;shape-rendering:geometricPrecision;text-rendering:geometricPrecision" />
        <path
           class="fil2 str2"
           d="m 17.716655,-112.234 105.104015,0 m -105.104015,0 z"
           id="path507"
           style="fill:none;fill-rule:evenodd;stroke:#000000;stroke-width:1.29754543;stroke-linejoin:bevel;image-rendering:optimizeQuality;shape-rendering:geometricPrecision;text-rendering:geometricPrecision" />
        <path
           class="fil2 str2"
           d="m 17.716655,-106.58622 105.104015,0 m -105.104015,0 z"
           id="path509"
           style="fill:none;fill-rule:evenodd;stroke:#000000;stroke-width:1.29754543;stroke-linejoin:bevel;image-rendering:optimizeQuality;shape-rendering:geometricPrecision;text-rendering:geometricPrecision" />
      </g>
      <path
         style="fill:none;fill-rule:evenodd;stroke:#000000;stroke-width:1.29754543;stroke-linejoin:bevel;image-rendering:optimizeQuality;shape-rendering:geometricPrecision;text-rendering:geometricPrecision"
         id="path697"
         d="m 218.35859,234.69809 0,22.59233 m 0,-22.59233 z"
         class="fil2 str2" />
      <path
         style="fill:none;fill-rule:evenodd;stroke:#000000;stroke-width:1.29754543;stroke-linejoin:bevel;image-rendering:optimizeQuality;shape-rendering:geometricPrecision;text-rendering:geometricPrecision"
         id="path697-3"
         d="m 221.9102,234.76369 0,22.59233 m 0,-22.59233 z"
         class="fil2 str2" />
    </g>
    <g
       style="stroke:none;stroke-opacity:1;fill:#000000;fill-opacity:1"
       transform="matrix(0.99999141,0,0,1.0065833,0.3053541,-1.4553961)"
       id="note_buttons">
      <rect
         style="opacity:0.3;fill:#000000;fill-opacity:1;stroke:none;stroke-width:0.79621941;stroke-linecap:round;stroke-linejoin:round;stroke-miterlimit:4;stroke-dasharray:none;stroke-opacity:1"
         id="btn_f4"
         width="23.499233"
         height="42.817421"
         x="-96.657585"
         y="224.36707" />
      <rect
         style="opacity:0.3;fill:#000000;fill-opacity:1;stroke:none;stroke-width:0.79621941;stroke-linecap:round;stroke-linejoin:round;stroke-miterlimit:4;stroke-dasharray:none;stroke-opacity:1"
         id="btn_f4_sharp"
         width="23.499233"
         height="42.817421"
         x="-71.14106"
         y="224.36707" />
      <rect
         style="opacity:0.3;fill:#000000;fill-opacity:1;stroke:none;stroke-width:0.79621941;stroke-linecap:round;stroke-linejoin:round;stroke-miterlimit:4;stroke-dasharray:none;stroke-opacity:1"
         id="btn_g4"
         width="23.499233"
         height="42.817421"
         x="-45.624538"
         y="224.36707" />
      <rect
         style="opacity:0.3;fill:#000000;fill-opacity:1;stroke:none;stroke-width:0.79621941;stroke-linecap:round;stroke-linejoin:round;stroke-miterlimit:4;stroke-dasharray:none;stroke-opacity:1"
         id="btn_g4_sharp"
         width="23.499233"
         height="42.817421"
         x="-20.108004"
         y="224.36707" />
      <rect
         style="opacity:0.3;fill:#000000;fill-opacity:1;stroke:none;stroke-width:0.79621941;stroke-linecap:round;stroke-linejoin:round;stroke-miterlimit:4;stroke-dasharray:none;stroke-opacity:1"
         id="btn_a4"
         width="23.499233"
         height="42.817421"
         x="5.4085217"
         y="224.36707" />
      <rect
         style="opacity:0.3;fill:#000000;fill-opacity:1;stroke:none;stroke-width:0.79621941;stroke-linecap:round;stroke-linejoin:round;stroke-miterlimit:4;stroke-dasharray:none;stroke-opacity:1"
         id="btn_b4_flat"
         width="23.499233"
         height="42.817421"
         x="30.925047"
         y="224.36707" />
      <rect
         style="opacity:0.3;fill:#000000;fill-opacity:1;stroke:none;stroke-width:0.79621941;stroke-linecap:round;stroke-linejoin:round;stroke-miterlimit:4;stroke-dasharray:none;stroke-opacity:1"
         id="btn_b4"
         width="23.499233"
         height="42.817421"
         x="56.44157"
         y="224.36707" />
      <rect
         style="opacity:0.3;fill:#000000;fill-opacity:1;stroke:none;stroke-width:0.79621941;stroke-linecap:round;stroke-linejoin:round;stroke-miterlimit:4;stroke-dasharray:none;stroke-opacity:1"
         id="btn_c5"
         width="23.499233"
         height="42.817421"
         x="81.958107"
         y="224.36707" />
      <rect
         style="opacity:0.3;fill:#000000;fill-opacity:1;stroke:none;stroke-width:0.79621941;stroke-linecap:round;stroke-linejoin:round;stroke-miterlimit:4;stroke-dasharray:none;stroke-opacity:1"
         id="btn_c5_sharp"
         width="23.499233"
         height="42.817421"
         x="107.47463"
         y="224.36707" />
      <rect
         style="opacity:0.3;fill:#000000;fill-opacity:1;stroke:none;stroke-width:0.79621941;stroke-linecap:round;stroke-linejoin:round;stroke-miterlimit:4;stroke-dasharray:none;stroke-opacity:1"
         id="btn_d5"
         width="23.499233"
         height="42.817421"
         x="132.99115"
         y="224.36707" />
      <rect
         style="opacity:0.3;fill:#000000;fill-opacity:1;stroke:none;stroke-width:0.79621941;stroke-linecap:round;stroke-linejoin:round;stroke-miterlimit:4;stroke-dasharray:none;stroke-opacity:1"
         id="btn_e5_flat"
         width="23.499233"
         height="42.817421"
         x="158.50766"
         y="224.36707" />
      <rect
         style="opacity:0.3;fill:#000000;fill-opacity:1;stroke:none;stroke-width:0.79621941;stroke-linecap:round;stroke-linejoin:round;stroke-miterlimit:4;stroke-dasharray:none;stroke-opacity:1"
         id="btn_e5"
         width="23.499233"
         height="42.817421"
         x="184.02417"
         y="224.36707" />
    </g>
  </g>
</svg>
